<?xml version="1.0" encoding="utf-8"?>
<!-- Generator: Adobe Illustrator 23.1.0, SVG Export Plug-In . SVG Version: 6.00 Build 0)  -->
<svg version="1.1" id="Layer_1" xmlns="http://www.w3.org/2000/svg" xmlns:xlink="http://www.w3.org/1999/xlink" x="0px" y="0px"
	 viewBox="0 0 612 792" style="enable-background:new 0 0 612 792;" xml:space="preserve">
<style type="text/css">
	.st0{fill:#231F20;}
</style>
<path class="st0" d="M368.3,376.5c-0.1,0.3,0,0.6,0.3,0.7c0.3,0.1,0.6,0,0.7-0.3s0-0.6-0.3-0.7C368.7,376.1,368.4,376.2,368.3,376.5
	 M377,388.7c-0.2,0.6,0.2,1.2,0.8,1.4c0.6,0.2,1.2-0.2,1.4-0.8c0.2-0.6-0.2-1.2-0.8-1.4C377.7,387.8,377.1,388.1,377,388.7
	 M388.2,398.8c-0.1,0.9,0.5,1.8,1.4,1.9c0.9,0.1,1.8-0.5,1.9-1.4c0.1-0.9-0.5-1.8-1.4-1.9C389.2,397.3,388.3,397.9,388.2,398.8
	 M401.9,406.7c0,1.3,1,2.4,2.3,2.4c1.3,0,2.4-1,2.4-2.3c0-1.3-1-2.4-2.3-2.4C403,404.4,401.9,405.4,401.9,406.7 M417.5,411.8
	c0.1,1.6,1.5,2.8,3.1,2.6c1.6-0.1,2.8-1.5,2.6-3.1c-0.1-1.6-1.5-2.8-3.1-2.6C418.5,408.8,417.4,410.2,417.5,411.8 M434.6,413.9
	c0.4,1.9,2.2,3.1,4.1,2.7c1.9-0.4,3.1-2.2,2.7-4.1c-0.4-1.9-2.2-3.1-4.1-2.7C435.5,410.2,434.2,412,434.6,413.9 M452.8,412.6
	c0.7,2.1,2.9,3.3,5.1,2.6c2.1-0.7,3.3-2.9,2.6-5.1c-0.7-2.1-2.9-3.3-5.1-2.6C453.3,408.2,452.1,410.5,452.8,412.6 M471.3,407.7
	c1,2.3,3.8,3.3,6.1,2.3c2.3-1,3.3-3.8,2.3-6.1c-1-2.3-3.8-3.3-6.1-2.3C471.3,402.7,470.3,405.4,471.3,407.7 M489.8,399.2
	c1.5,2.4,4.6,3.3,7.1,1.8c2.4-1.5,3.3-4.6,1.8-7.1c-1.5-2.4-4.6-3.3-7.1-1.8C489.2,393.6,488.4,396.8,489.8,399.2 M507.5,387.2
	c1.9,2.6,5.6,3.1,8.1,1.1c2.6-1.9,3.1-5.6,1.1-8.1c-1.9-2.6-5.6-3.1-8.1-1.1C506.1,381,505.6,384.6,507.5,387.2 M524,371.6
	c2.4,2.5,6.4,2.6,9,0.2c2.5-2.4,2.6-6.4,0.2-9c-2.4-2.5-6.4-2.6-9-0.2C521.7,365,521.6,369,524,371.6 M538.8,352.6
	c2.9,2.5,7.3,2.1,9.8-0.8c2.5-2.9,2.1-7.3-0.8-9.8c-2.9-2.5-7.3-2.1-9.8,0.8C535.4,345.8,535.8,350.2,538.8,352.6 M550.9,330.5
	c3.4,2.3,8.1,1.4,10.4-2.1c2.3-3.4,1.4-8.1-2.1-10.4c-3.4-2.3-8.1-1.4-10.4,2.1C546.5,323.5,547.5,328.2,550.9,330.5 M560.3,305.5
	c4,2,8.8,0.5,10.8-3.5c2-4,0.5-8.8-3.5-10.8c-4-2-8.8-0.5-10.8,3.5C554.8,298.7,556.3,303.5,560.3,305.5 M366.3,367.6
	c-0.1,0.3,0.1,0.6,0.4,0.6c0.3,0.1,0.6-0.1,0.6-0.4c0.1-0.3-0.1-0.6-0.4-0.6C366.7,367.1,366.4,367.3,366.3,367.6 M376.8,378.1
	c-0.1,0.6,0.4,1.2,1,1.2c0.6,0.1,1.2-0.4,1.2-1c0.1-0.6-0.4-1.2-1-1.2C377.4,377,376.8,377.5,376.8,378.1 M389.5,386.5
	c0,0.9,0.8,1.7,1.7,1.7c0.9,0,1.7-0.8,1.7-1.7c0-0.9-0.8-1.7-1.7-1.7C390.2,384.8,389.5,385.6,389.5,386.5 M404.1,392.1
	c0.2,1.3,1.3,2.2,2.6,2c1.3-0.2,2.2-1.3,2-2.6c-0.2-1.3-1.3-2.2-2.6-2C404.9,389.7,404,390.9,404.1,392.1 M420.5,394.7
	c0.4,1.6,2,2.5,3.5,2.1c1.6-0.4,2.5-2,2.1-3.5c-0.4-1.6-2-2.5-3.5-2.1C421,391.6,420.1,393.1,420.5,394.7 M437.7,394
	c0.7,1.8,2.7,2.7,4.4,2c1.8-0.7,2.7-2.7,2-4.4c-0.7-1.8-2.7-2.7-4.4-2C437.9,390.2,437,392.2,437.7,394 M455.4,389.9
	c1,2,3.4,2.8,5.4,1.8c2-1,2.8-3.4,1.8-5.4c-1-2-3.4-2.8-5.4-1.8C455.2,385.5,454.4,387.9,455.4,389.9 M473,382.1
	c1.4,2.1,4.2,2.7,6.4,1.3c2.1-1.4,2.7-4.2,1.3-6.4c-1.4-2.1-4.2-2.7-6.4-1.3C472.2,377.1,471.6,380,473,382.1 M490,370.9
	c1.8,2.2,5.1,2.5,7.3,0.7c2.2-1.8,2.5-5.1,0.7-7.3c-1.8-2.2-5.1-2.5-7.3-0.7C488.5,365.5,488.2,368.7,490,370.9 M505.5,356.3
	c2.3,2.2,6,2.2,8.2-0.2c2.2-2.3,2.1-6-0.2-8.2c-2.3-2.2-6-2.1-8.2,0.2C503.2,350.4,503.2,354.1,505.5,356.3 M519.5,338.3
	c2.8,2.1,6.8,1.6,8.9-1.2c2.1-2.8,1.6-6.8-1.2-8.9c-2.8-2.1-6.8-1.6-8.9,1.2C516.1,332.1,516.7,336.1,519.5,338.3 M530.9,317.2
	c3.3,2,7.5,0.9,9.5-2.4c2-3.3,0.9-7.5-2.4-9.5c-3.3-2-7.5-0.9-9.5,2.4C526.6,311,527.7,315.2,530.9,317.2 M539.5,293.5
	c3.8,1.7,8.2,0.1,9.9-3.7c1.7-3.8,0.1-8.2-3.7-9.9c-3.8-1.7-8.2-0.1-9.9,3.7C534.1,287.3,535.8,291.8,539.5,293.5 M544.9,267.2
	c4.2,1.4,8.8-0.9,10.2-5.1c1.4-4.2-0.9-8.8-5.1-10.2c-4.2-1.4-8.8,0.9-10.2,5.1C538.4,261.3,540.7,265.8,544.9,267.2 M362.9,359
	c0,0.3,0.2,0.6,0.5,0.6c0.3,0,0.6-0.2,0.6-0.5c0-0.3-0.2-0.6-0.5-0.6C363.2,358.4,362.9,358.7,362.9,359 M375,367.8
	c0,0.6,0.6,1.1,1.2,1.1c0.6,0,1.1-0.6,1.1-1.2c0-0.6-0.6-1.1-1.2-1.1C375.4,366.7,374.9,367.2,375,367.8 M388.9,373.9
	c0.2,0.9,1,1.5,2,1.4c0.9-0.2,1.5-1,1.4-2c-0.2-0.9-1-1.5-2-1.4C389.3,372.1,388.7,373,388.9,373.9 M404.2,377.2
	c0.4,1.2,1.7,1.9,2.9,1.6c1.2-0.4,1.9-1.7,1.6-2.9c-0.4-1.2-1.7-1.9-2.9-1.6C404.6,374.7,403.9,376,404.2,377.2 M420.8,377.3
	c0.6,1.5,2.3,2.2,3.8,1.5c1.5-0.6,2.2-2.3,1.5-3.8c-0.6-1.5-2.3-2.2-3.8-1.5C420.8,374.1,420.1,375.8,420.8,377.3 M437.6,373.9
	c0.9,1.7,3,2.3,4.7,1.3c1.7-0.9,2.3-3,1.3-4.7c-0.9-1.7-3-2.3-4.7-1.3C437.2,370.1,436.6,372.2,437.6,373.9 M454.5,367.1
	c1.3,1.8,3.8,2.2,5.6,0.9c1.8-1.3,2.2-3.8,0.9-5.6c-1.3-1.8-3.8-2.2-5.6-0.9C453.6,362.7,453.2,365.3,454.5,367.1 M470.7,356.8
	c1.7,1.9,4.6,2,6.5,0.3c1.9-1.7,2-4.6,0.3-6.5c-1.7-1.9-4.6-2-6.5-0.3C469.1,352,469,354.9,470.7,356.8 M485.6,343
	c2.1,1.9,5.4,1.7,7.3-0.5c1.9-2.1,1.7-5.4-0.5-7.3c-2.1-1.9-5.4-1.7-7.3,0.5C483.2,337.8,483.4,341.1,485.6,343 M498.8,326
	c2.6,1.8,6.2,1.2,8.1-1.4c1.8-2.6,1.2-6.2-1.4-8.1c-2.6-1.8-6.2-1.2-8.1,1.4C495.6,320.5,496.2,324.2,498.8,326 M509.7,306.1
	c3.1,1.7,6.9,0.5,8.6-2.6c1.7-3.1,0.5-6.9-2.6-8.6c-3.1-1.7-6.9-0.5-8.6,2.6C505.4,300.6,506.6,304.5,509.7,306.1 M517.7,283.5
	c3.5,1.4,7.6-0.3,9-3.8c1.4-3.5-0.3-7.6-3.8-9c-3.5-1.4-7.6,0.3-9,3.8C512.5,278.1,514.2,282.1,517.7,283.5 M522.4,258.7
	c4,1.1,8.1-1.2,9.2-5.2c1.1-4-1.2-8.1-5.2-9.2c-4-1.1-8.1,1.2-9.2,5.2C516.1,253.4,518.5,257.6,522.4,258.7 M523.6,232
	c4.4,0.7,8.5-2.3,9.2-6.7c0.7-4.4-2.3-8.5-6.7-9.2c-4.4-0.7-8.5,2.3-9.2,6.7C516.2,227.1,519.2,231.2,523.6,232 M358.3,351
	c0,0.3,0.3,0.5,0.6,0.5c0.3,0,0.5-0.3,0.5-0.6c0-0.3-0.3-0.5-0.6-0.5C358.4,350.4,358.2,350.7,358.3,351 M371.5,357.9
	c0.1,0.6,0.7,1,1.3,0.9c0.6-0.1,1-0.7,0.9-1.3c-0.1-0.6-0.7-1-1.3-0.9C371.7,356.7,371.3,357.3,371.5,357.9 M386.2,361.8
	c0.3,0.9,1.3,1.3,2.1,1c0.9-0.3,1.3-1.3,1-2.1c-0.3-0.9-1.3-1.3-2.2-1C386.3,360,385.9,360.9,386.2,361.8 M401.9,362.6
	c0.6,1.2,1.9,1.7,3.1,1.1c1.2-0.6,1.7-1.9,1.1-3.1c-0.6-1.2-1.9-1.7-3.1-1.1C401.9,360,401.4,361.4,401.9,362.6 M418.2,360
	c0.8,1.4,2.6,1.8,4,0.9c1.4-0.8,1.8-2.6,0.9-4c-0.8-1.4-2.6-1.8-4-0.9C417.8,356.8,417.4,358.6,418.2,360 M434.3,354.1
	c1.2,1.5,3.4,1.8,4.9,0.6c1.5-1.2,1.8-3.4,0.6-4.9c-1.2-1.5-3.4-1.8-4.9-0.6C433.4,350.4,433.1,352.6,434.3,354.1 M450,344.7
	c1.6,1.6,4.1,1.6,5.7,0c1.6-1.6,1.6-4.1,0-5.7c-1.6-1.6-4.1-1.6-5.7,0C448.5,340.6,448.5,343.1,450,344.7 M464.3,331.8
	c2,1.6,4.9,1.3,6.5-0.7c1.6-2,1.3-4.9-0.7-6.4c-2-1.6-4.9-1.3-6.4,0.7C462,327.3,462.3,330.2,464.3,331.8 M477,315.9
	c2.4,1.5,5.6,0.8,7.1-1.6c1.5-2.4,0.8-5.6-1.6-7.1c-2.4-1.5-5.6-0.8-7.1,1.6C473.9,311.2,474.6,314.4,477,315.9 M487.2,297.3
	c2.9,1.4,6.3,0.2,7.7-2.7c1.4-2.9,0.2-6.3-2.7-7.7c-2.9-1.4-6.3-0.2-7.7,2.7C483.2,292.4,484.4,295.9,487.2,297.3 M495,275.8
	c3.3,1.2,6.9-0.6,8.1-3.9c1.2-3.3-0.6-6.9-3.9-8.1c-3.3-1.2-6.9,0.6-8.1,3.9C489.9,271,491.7,274.6,495,275.8 M499.3,252.3
	c3.7,0.9,7.4-1.5,8.3-5.2c0.9-3.7-1.5-7.4-5.2-8.3c-3.7-0.9-7.4,1.5-8.3,5.2C493.3,247.7,495.6,251.5,499.3,252.3 M500.1,227
	c4.1,0.5,7.8-2.5,8.3-6.6c0.5-4.1-2.5-7.8-6.6-8.3c-4.1-0.5-7.8,2.5-8.3,6.6C493,222.8,496,226.5,500.1,227 M497.1,200.5
	c4.4,0,8.1-3.6,8.1-8c0-4.4-3.6-8.1-8-8.1c-4.4,0-8.1,3.6-8.1,8C489.1,196.9,492.7,200.5,497.1,200.5 M352.5,343.8
	c0.1,0.3,0.4,0.5,0.7,0.4c0.3-0.1,0.5-0.4,0.4-0.7c-0.1-0.3-0.4-0.5-0.7-0.4C352.6,343.2,352.4,343.5,352.5,343.8 M366.5,348.5
	c0.2,0.6,0.9,0.9,1.5,0.6c0.6-0.2,0.9-0.9,0.6-1.5c-0.2-0.6-0.9-0.9-1.5-0.6C366.6,347.3,366.3,348,366.5,348.5 M381.8,350.1
	c0.4,0.8,1.5,1.1,2.3,0.7c0.8-0.4,1.1-1.5,0.7-2.3c-0.4-0.8-1.5-1.1-2.3-0.7C381.7,348.3,381.3,349.3,381.8,350.1 M397.5,348.4
	c0.7,1.1,2.2,1.3,3.2,0.6c1.1-0.7,1.3-2.2,0.6-3.2c-0.7-1.1-2.2-1.3-3.2-0.6C397,345.9,396.7,347.3,397.5,348.4 M413,343.4
	c1,1.2,2.9,1.3,4.1,0.3c1.2-1,1.3-2.9,0.3-4.1c-1-1.2-2.9-1.3-4.1-0.3C412.1,340.4,412,342.2,413,343.4 M428.1,335
	c1.4,1.3,3.6,1.2,4.9-0.2c1.3-1.4,1.2-3.6-0.2-4.9c-1.4-1.3-3.6-1.2-4.9,0.2C426.6,331.5,426.7,333.7,428.1,335 M442,323.2
	c1.8,1.3,4.3,0.9,5.6-0.9c1.3-1.8,0.9-4.3-0.9-5.6c-1.8-1.3-4.3-0.9-5.6,0.9C439.8,319.4,440.2,321.9,442,323.2 M454.2,308.4
	c2.2,1.3,5,0.5,6.3-1.7c1.3-2.2,0.5-5-1.7-6.3c-2.2-1.3-5-0.5-6.3,1.7C451.3,304.3,452,307.1,454.2,308.4 M464.2,290.7
	c2.6,1.1,5.6-0.1,6.8-2.7c1.1-2.6-0.1-5.6-2.7-6.8c-2.6-1.1-5.6,0.1-6.8,2.7C460.4,286.6,461.6,289.6,464.2,290.7 M471.5,270.6
	c3.1,0.9,6.3-0.8,7.2-3.9c0.9-3.1-0.8-6.3-3.9-7.2c-3.1-0.9-6.3,0.8-7.2,3.9C466.7,266.4,468.4,269.7,471.5,270.6 M475.6,248.2
	c3.5,0.6,6.8-1.6,7.4-5.1c0.6-3.5-1.6-6.8-5.1-7.4c-3.5-0.6-6.8,1.6-7.4,5.1C469.9,244.3,472.2,247.6,475.6,248.2 M476.2,224.3
	c3.8,0.3,7.1-2.6,7.4-6.4c0.3-3.8-2.6-7.1-6.4-7.4c-3.8-0.3-7.1,2.6-7.4,6.4C469.5,220.7,472.4,224,476.2,224.3 M473.1,199.2
	c4.1-0.2,7.3-3.7,7.2-7.8c-0.2-4.1-3.7-7.3-7.8-7.2c-4.1,0.2-7.3,3.7-7.2,7.8C465.5,196.2,469,199.4,473.1,199.2 M466,173.5
	c4.4-0.7,7.4-4.8,6.7-9.2c-0.7-4.4-4.8-7.4-9.2-6.7c-4.4,0.7-7.4,4.8-6.7,9.2C457.5,171.2,461.7,174.2,466,173.5 M345.6,337.6
	c0.1,0.3,0.4,0.4,0.7,0.3c0.3-0.1,0.4-0.4,0.3-0.7c-0.1-0.3-0.4-0.4-0.7-0.3C345.6,337,345.5,337.4,345.6,337.6 M360.3,340.2
	c0.3,0.5,1,0.7,1.5,0.4c0.5-0.3,0.7-1,0.4-1.5c-0.3-0.5-1-0.7-1.5-0.4C360.2,338.9,360,339.6,360.3,340.2 M375.5,339.4
	c0.6,0.7,1.6,0.9,2.4,0.3c0.7-0.6,0.9-1.6,0.3-2.4c-0.6-0.7-1.6-0.9-2.4-0.3C375.1,337.6,374.9,338.7,375.5,339.4 M390.6,335.2
	c0.9,0.9,2.4,1,3.3,0.1c0.9-0.9,1-2.4,0.1-3.3c-0.9-0.9-2.4-1-3.3-0.1C389.7,332.7,389.7,334.2,390.6,335.2 M405.3,327.8
	c1.2,1,3.1,0.9,4.1-0.4c1-1.2,0.9-3.1-0.4-4.1c-1.2-1-3.1-0.9-4.1,0.4C403.9,324.9,404.1,326.8,405.3,327.8 M418.9,317.1
	c1.6,1.1,3.7,0.6,4.8-1c1.1-1.6,0.6-3.7-1-4.8c-1.6-1.1-3.7-0.6-4.8,1C416.8,313.9,417.3,316.1,418.9,317.1 M430.8,303.2
	c2,1,4.4,0.2,5.4-1.7c1-2,0.2-4.4-1.7-5.4c-2-1-4.4-0.2-5.4,1.7C428,299.8,428.8,302.2,430.8,303.2 M440.6,286.8
	c2.4,0.9,5-0.3,5.9-2.7c0.9-2.4-0.3-5-2.7-5.9c-2.4-0.9-5,0.3-5.9,2.7C437,283.3,438.2,285.9,440.6,286.8 M447.6,267.8
	c2.8,0.7,5.6-1,6.3-3.7c0.7-2.8-1-5.6-3.7-6.3c-2.8-0.7-5.6,1-6.3,3.7C443.2,264.3,444.8,267.1,447.6,267.8 M451.6,246.7
	c3.2,0.4,6.1-1.8,6.5-4.9c0.4-3.2-1.8-6.1-4.9-6.5c-3.2-0.4-6.1,1.8-6.5,4.9C446.2,243.3,448.4,246.2,451.6,246.7 M452.3,224
	c3.5,0.1,6.4-2.7,6.5-6.2c0.1-3.5-2.7-6.4-6.2-6.5c-3.5-0.1-6.4,2.7-6.5,6.2C446,221,448.8,223.9,452.3,224 M449.1,200.2
	c3.8-0.3,6.6-3.7,6.3-7.5c-0.3-3.8-3.7-6.6-7.5-6.3c-3.8,0.3-6.6,3.7-6.3,7.5C442,197.7,445.3,200.5,449.1,200.2 M442.2,175.9
	c4.1-0.8,6.7-4.8,5.9-8.8c-0.8-4.1-4.8-6.7-8.8-5.9c-4.1,0.8-6.7,4.8-5.9,8.8C434.2,174.1,438.2,176.7,442.2,175.9 M431.1,151.7
	c4.2-1.4,6.6-5.9,5.2-10.1c-1.4-4.2-5.9-6.6-10.1-5.2c-4.2,1.4-6.6,5.9-5.2,10.1C422.3,150.7,426.8,153,431.1,151.7 M337.9,332.7
	c0.2,0.3,0.5,0.3,0.8,0.2c0.3-0.2,0.3-0.5,0.2-0.8c-0.2-0.3-0.5-0.3-0.8-0.2C337.8,332.1,337.7,332.5,337.9,332.7 M352.7,332.7
	c0.4,0.5,1.1,0.5,1.6,0.1c0.5-0.4,0.5-1.1,0.1-1.6c-0.4-0.5-1.1-0.5-1.6-0.1C352.4,331.6,352.3,332.3,352.7,332.7 M367.6,329.6
	c0.7,0.6,1.7,0.6,2.4,0c0.6-0.7,0.6-1.7,0-2.4c-0.7-0.7-1.7-0.6-2.4,0C366.9,327.9,366.9,329,367.6,329.6 M382,323.2
	c1,0.8,2.5,0.6,3.3-0.4c0.8-1,0.6-2.5-0.4-3.3c-1-0.8-2.5-0.6-3.3,0.4C380.8,320.9,381,322.4,382,323.2 M395.2,313.6
	c1.4,0.8,3.2,0.4,4-1c0.8-1.4,0.4-3.2-1-4c-1.4-0.8-3.2-0.4-4,1C393.4,311,393.9,312.8,395.2,313.6 M406.9,300.8
	c1.7,0.8,3.8,0,4.6-1.7c0.8-1.7,0-3.8-1.7-4.6c-1.7-0.8-3.8,0-4.6,1.7C404.4,298,405.2,300,406.9,300.8 M416.6,285.5
	c2.1,0.7,4.4-0.5,5.1-2.6c0.7-2.1-0.5-4.4-2.6-5.1c-2.1-0.7-4.4,0.5-5.1,2.6C413.3,282.5,414.4,284.8,416.6,285.5 M423.6,267.5
	c2.5,0.5,4.9-1.1,5.4-3.6c0.5-2.5-1.1-4.9-3.6-5.4c-2.5-0.5-4.9,1.1-5.4,3.6C419.5,264.6,421.1,267,423.6,267.5 M427.6,247.7
	c2.8,0.3,5.3-1.8,5.6-4.7c0.3-2.8-1.8-5.3-4.7-5.6c-2.8-0.3-5.3,1.8-5.6,4.7C422.7,244.9,424.8,247.4,427.6,247.7 M428.4,226.3
	c3.2-0.1,5.7-2.7,5.7-5.9c-0.1-3.2-2.7-5.7-5.9-5.7c-3.2,0.1-5.7,2.7-5.7,5.9C422.5,223.8,425.2,226.3,428.4,226.3 M425.5,203.7
	c3.5-0.5,5.9-3.7,5.5-7.1c-0.5-3.5-3.7-5.9-7.1-5.5c-3.5,0.5-5.9,3.7-5.5,7.1C418.8,201.7,422,204.1,425.5,203.7 M418.7,180.7
	c3.7-0.9,6-4.7,5-8.4c-0.9-3.7-4.7-6-8.4-5c-3.7,0.9-6,4.7-5,8.4C411.2,179.3,415,181.6,418.7,180.7 M407.9,157.7
	c3.9-1.4,5.8-5.7,4.4-9.6c-1.4-3.9-5.7-5.8-9.6-4.4c-3.9,1.4-5.8,5.8-4.4,9.6C399.8,157.2,404.1,159.1,407.9,157.7 M393.1,135.6
	c4-2,5.6-6.8,3.6-10.8c-2-4-6.8-5.6-10.8-3.6c-4,2-5.6,6.8-3.6,10.8C384.3,136,389.1,137.6,393.1,135.6 M329.4,328.9
	c0.2,0.2,0.5,0.2,0.8,0c0.2-0.2,0.2-0.5,0-0.8c-0.2-0.2-0.5-0.2-0.8,0C329.2,328.4,329.2,328.7,329.4,328.9 M344.1,326.8
	c0.5,0.4,1.2,0.4,1.6-0.1c0.4-0.5,0.4-1.2-0.1-1.6c-0.5-0.4-1.2-0.4-1.6,0.1C343.6,325.6,343.7,326.3,344.1,326.8 M358.3,321.3
	c0.8,0.5,1.8,0.3,2.4-0.4c0.5-0.8,0.3-1.8-0.4-2.4c-0.8-0.5-1.8-0.3-2.4,0.4C357.4,319.7,357.6,320.7,358.3,321.3 M371.5,312.7
	c1.1,0.6,2.6,0.2,3.2-0.9c0.6-1.1,0.2-2.6-0.9-3.2c-1.1-0.6-2.5-0.2-3.2,0.9C370,310.7,370.4,312.1,371.5,312.7 M383.1,301.1
	c1.5,0.6,3.2-0.1,3.8-1.6c0.6-1.5-0.1-3.2-1.6-3.8c-1.5-0.6-3.2,0.1-3.8,1.6C380.9,298.8,381.6,300.5,383.1,301.1 M392.8,286.7
	c1.8,0.5,3.8-0.6,4.3-2.4c0.5-1.8-0.6-3.7-2.4-4.3c-1.8-0.5-3.8,0.6-4.3,2.4C389.9,284.2,391,286.1,392.8,286.7 M399.8,270
	c2.2,0.4,4.3-1.1,4.6-3.3c0.4-2.2-1.1-4.3-3.3-4.6c-2.2-0.4-4.3,1.1-4.6,3.3C396.1,267.6,397.6,269.6,399.8,270 M404,251.2
	c2.5,0.1,4.7-1.8,4.8-4.4c0.1-2.5-1.8-4.7-4.4-4.8c-2.5-0.1-4.7,1.8-4.8,4.4C399.5,248.9,401.5,251.1,404,251.2 M404.8,230.9
	c2.8-0.2,5-2.6,4.8-5.5c-0.2-2.8-2.6-5-5.5-4.8c-2.8,0.2-5,2.6-4.8,5.5C399.5,229,401.9,231.1,404.8,230.9 M402.1,209.6
	c3.1-0.6,5.2-3.6,4.7-6.7c-0.6-3.2-3.6-5.3-6.7-4.7c-3.1,0.6-5.2,3.6-4.7,6.7C395.9,208.1,398.9,210.2,402.1,209.6 M395.7,187.8
	c3.4-1,5.3-4.5,4.3-7.9c-1-3.4-4.5-5.3-7.9-4.3c-3.4,1-5.3,4.5-4.3,7.9C388.8,186.9,392.3,188.8,395.7,187.8 M385.4,166.2
	c3.5-1.5,5.2-5.6,3.7-9.1c-1.5-3.5-5.6-5.2-9.1-3.7c-3.5,1.5-5.2,5.6-3.7,9.1C377.8,166,381.9,167.6,385.4,166.2 M371.2,145.3
	c3.6-2,4.9-6.6,2.9-10.2c-2-3.6-6.6-4.9-10.2-2.9c-3.6,2-4.9,6.6-2.9,10.2C363,146,367.6,147.3,371.2,145.3 M353.1,125.6
	c3.6-2.6,4.4-7.6,1.8-11.2c-2.6-3.6-7.6-4.4-11.2-1.8c-3.6,2.6-4.4,7.6-1.8,11.2C344.5,127.4,349.5,128.2,353.1,125.6 M320.5,326.6
	c0.2,0.2,0.6,0.1,0.8-0.1c0.2-0.2,0.2-0.6-0.1-0.8c-0.2-0.2-0.6-0.2-0.8,0.1C320.2,326,320.2,326.4,320.5,326.6 M334.6,322.2
	c0.5,0.3,1.2,0.2,1.6-0.4c0.3-0.5,0.2-1.2-0.3-1.6c-0.5-0.3-1.2-0.2-1.6,0.4C333.9,321.2,334.1,321.9,334.6,322.2 M347.9,314.5
	c0.8,0.4,1.9,0.1,2.3-0.8c0.4-0.8,0.1-1.8-0.8-2.3c-0.8-0.4-1.9-0.1-2.3,0.8C346.7,313.1,347.1,314.1,347.9,314.5 M359.5,303.9
	c1.2,0.4,2.5-0.2,3-1.4c0.4-1.2-0.2-2.5-1.4-3c-1.2-0.4-2.5,0.2-3,1.4C357.6,302.1,358.3,303.5,359.5,303.9 M369.2,290.6
	c1.6,0.4,3.1-0.6,3.5-2.2c0.4-1.6-0.6-3.1-2.2-3.5c-1.6-0.4-3.1,0.6-3.5,2.2C366.7,288.7,367.6,290.2,369.2,290.6 M376.4,275
	c1.9,0.2,3.6-1.1,3.8-3c0.2-1.9-1.1-3.6-3-3.8c-1.9-0.2-3.6,1.1-3.8,3C373.2,273.1,374.5,274.8,376.4,275 M380.8,257.3
	c2.2,0,4-1.8,4-4c0-2.2-1.8-4-4-4c-2.2,0-4,1.8-4,4C376.7,255.5,378.5,257.3,380.8,257.3 M381.8,238.1c2.5-0.3,4.3-2.5,4.1-5.1
	c-0.3-2.5-2.5-4.3-5.1-4.1c-2.5,0.3-4.3,2.5-4.1,5.1C377.1,236.6,379.3,238.4,381.8,238.1 M379.7,217.9c2.8-0.6,4.5-3.4,3.9-6.2
	c-0.6-2.8-3.4-4.5-6.2-3.9c-2.8,0.6-4.5,3.4-3.9,6.2C374.1,216.8,376.9,218.6,379.7,217.9 M373.7,197.4c3-1,4.6-4.3,3.6-7.4
	c-1-3-4.3-4.6-7.4-3.6c-3,1-4.6,4.3-3.6,7.4C367.3,196.9,370.6,198.5,373.7,197.4 M364,176.9c3.2-1.5,4.5-5.3,3-8.5
	c-1.5-3.2-5.3-4.5-8.5-3c-3.2,1.5-4.5,5.3-3,8.5C357,177,360.8,178.4,364,176.9 M350.3,157.1c3.2-2,4.2-6.3,2.2-9.5
	c-2-3.2-6.3-4.2-9.5-2.2c-3.2,2-4.2,6.3-2.2,9.5C342.8,158.2,347.1,159.1,350.3,157.1 M333,138.7c3.2-2.6,3.8-7.3,1.2-10.5
	c-2.6-3.2-7.3-3.8-10.5-1.2c-3.2,2.6-3.8,7.3-1.2,10.5C325.1,140.7,329.8,141.2,333,138.7 M312.1,122c3.2-3.1,3.2-8.2,0-11.4
	c-3.1-3.2-8.2-3.2-11.4,0c-3.2,3.1-3.2,8.2,0,11.4C303.8,125.1,308.9,125.2,312.1,122 M311.2,325.7c0.3,0.1,0.6,0.1,0.7-0.2
	c0.1-0.3,0.1-0.6-0.2-0.7c-0.3-0.1-0.6-0.1-0.7,0.2C310.9,325.2,310.9,325.5,311.2,325.7 M324.6,319.1c0.6,0.2,1.2,0,1.5-0.6
	c0.2-0.6,0-1.2-0.6-1.5c-0.6-0.2-1.2,0-1.5,0.6C323.8,318.1,324.1,318.8,324.6,319.1 M336.4,309.4c0.9,0.3,1.8-0.2,2.1-1.1
	c0.3-0.9-0.2-1.8-1.1-2.1c-0.9-0.3-1.8,0.2-2.1,1.1C335,308.2,335.5,309.1,336.4,309.4 M346.3,297.2c1.3,0.2,2.5-0.6,2.7-1.9
	c0.2-1.3-0.6-2.5-1.9-2.7c-1.3-0.2-2.5,0.6-2.7,1.9C344.2,295.8,345,297,346.3,297.2 M353.9,282.6c1.6,0.1,3-1.1,3.1-2.7
	c0.1-1.6-1.1-3-2.7-3.1c-1.6-0.1-3,1.1-3.1,2.7C351.1,281.1,352.3,282.5,353.9,282.6 M358.5,265.9c1.9-0.1,3.4-1.7,3.3-3.6
	c-0.1-1.9-1.7-3.4-3.6-3.3c-1.9,0.1-3.4,1.7-3.3,3.6C354.9,264.5,356.6,265.9,358.5,265.9 M360,247.8c2.2-0.3,3.7-2.4,3.4-4.6
	c-0.3-2.2-2.4-3.7-4.6-3.4c-2.2,0.3-3.7,2.4-3.4,4.6C355.7,246.6,357.8,248.1,360,247.8 M358.1,228.7c2.4-0.7,3.9-3.2,3.2-5.6
	c-0.7-2.4-3.2-3.9-5.6-3.2c-2.4,0.7-3.9,3.2-3.2,5.6C353.1,227.9,355.6,229.3,358.1,228.7 M352.7,209.2c2.6-1,3.9-4,2.9-6.7
	c-1-2.6-4-3.9-6.7-2.9c-2.6,1-3.9,4-2.9,6.7C347.1,208.9,350.1,210.2,352.7,209.2 M343.6,189.7c2.8-1.5,3.9-5,2.4-7.8
	c-1.5-2.8-5-3.9-7.8-2.4c-2.8,1.5-3.9,5-2.4,7.8C337.3,190.1,340.8,191.2,343.6,189.7 M330.7,171.1c2.9-2,3.6-6,1.6-8.8
	c-2-2.9-5.9-3.6-8.8-1.6c-2.9,2-3.6,5.9-1.6,8.8C323.8,172.3,327.8,173,330.7,171.1 M314.3,153.6c2.9-2.5,3.2-6.9,0.7-9.8
	c-2.5-2.9-6.9-3.2-9.8-0.7c-2.9,2.5-3.2,6.9-0.7,9.8C307.1,155.8,311.4,156.1,314.3,153.6 M294.3,138c2.8-3,2.6-7.8-0.4-10.6
	c-3-2.8-7.8-2.6-10.6,0.4c-2.8,3-2.6,7.8,0.4,10.6C286.8,141.3,291.5,141.1,294.3,138 M271.1,124.9c2.6-3.6,1.8-8.6-1.7-11.2
	c-3.6-2.6-8.6-1.8-11.2,1.7c-2.6,3.6-1.8,8.6,1.7,11.2C263.4,129.3,268.4,128.5,271.1,124.9 M301.9,326.2c0.3,0.1,0.6,0,0.7-0.3
	c0.1-0.3,0-0.6-0.3-0.7c-0.3-0.1-0.6,0-0.7,0.3C301.5,325.8,301.7,326.1,301.9,326.2 M314.2,317.5c0.6,0.2,1.2-0.2,1.4-0.8
	c0.2-0.6-0.2-1.2-0.8-1.4c-0.6-0.2-1.2,0.2-1.4,0.8C313.2,316.7,313.6,317.3,314.2,317.5 M324.3,306.3c0.9,0.1,1.8-0.5,1.9-1.4
	c0.1-0.9-0.5-1.8-1.4-1.9c-0.9-0.1-1.8,0.5-1.9,1.4C322.7,305.3,323.4,306.1,324.3,306.3 M332.2,292.6c1.3,0,2.4-1,2.4-2.3
	c0-1.3-1-2.4-2.3-2.4c-1.3,0-2.4,1-2.4,2.3C329.9,291.5,330.9,292.6,332.2,292.6 M337.2,277c1.6-0.1,2.8-1.5,2.6-3.1
	c-0.1-1.6-1.5-2.8-3.1-2.6c-1.6,0.1-2.8,1.5-2.6,3.1C334.2,275.9,335.7,277.1,337.2,277 M339.4,259.8c1.9-0.4,3.1-2.2,2.7-4.1
	c-0.4-1.9-2.2-3.1-4.1-2.7c-1.9,0.4-3.1,2.2-2.7,4.1C335.7,259,337.5,260.2,339.4,259.8 M338.1,241.7c2.1-0.7,3.3-2.9,2.6-5.1
	c-0.7-2.1-2.9-3.3-5.1-2.6c-2.1,0.7-3.3,2.9-2.6,5.1C333.7,241.2,335.9,242.4,338.1,241.7 M333.2,223.1c2.3-1,3.3-3.8,2.3-6.1
	c-1-2.3-3.8-3.3-6.1-2.3c-2.3,1-3.3,3.8-2.3,6.1C328.1,223.1,330.9,224.2,333.2,223.1 M324.7,204.6c2.4-1.5,3.3-4.6,1.8-7.1
	c-1.5-2.4-4.6-3.3-7.1-1.8c-2.4,1.5-3.3,4.6-1.8,7.1C319,205.3,322.2,206.1,324.7,204.6 M312.6,186.9c2.6-1.9,3.1-5.6,1.1-8.1
	c-1.9-2.6-5.6-3.1-8.1-1.1c-2.6,1.9-3.1,5.6-1.1,8.1C306.5,188.4,310.1,188.9,312.6,186.9 M297,170.4c2.5-2.4,2.6-6.4,0.2-9
	c-2.4-2.5-6.4-2.6-9-0.2c-2.5,2.4-2.6,6.4-0.2,9C290.5,172.7,294.5,172.8,297,170.4 M278.1,155.7c2.5-2.9,2.1-7.3-0.8-9.8
	c-2.9-2.5-7.3-2.1-9.8,0.8c-2.5,2.9-2.1,7.3,0.8,9.8C271.2,159,275.6,158.6,278.1,155.7 M255.9,143.6c2.3-3.4,1.4-8.1-2.1-10.4
	c-3.4-2.3-8.1-1.4-10.4,2.1c-2.3,3.4-1.4,8.1,2.1,10.4C249,147.9,253.6,147,255.9,143.6 M231,134.2c2-4,0.5-8.8-3.5-10.8
	c-4-2-8.8-0.5-10.8,3.5c-2,4-0.5,8.8,3.5,10.8C224.1,139.7,229,138.1,231,134.2 M293,328.1c0.3,0.1,0.6-0.1,0.6-0.4
	c0.1-0.3-0.1-0.6-0.4-0.6c-0.3-0.1-0.6,0.1-0.6,0.4C292.5,327.8,292.7,328.1,293,328.1 M303.6,317.7c0.6,0.1,1.2-0.4,1.2-1
	c0.1-0.6-0.4-1.2-1-1.2c-0.6-0.1-1.2,0.4-1.2,1C302.5,317.1,302.9,317.6,303.6,317.7 M312,305c0.9,0,1.7-0.8,1.7-1.7
	c0-0.9-0.8-1.7-1.7-1.7c-0.9,0-1.7,0.8-1.7,1.7C310.3,304.3,311.1,305,312,305 M317.6,290.3c1.3-0.2,2.2-1.3,2-2.6
	c-0.2-1.3-1.3-2.2-2.6-2c-1.3,0.2-2.2,1.3-2,2.6C315.1,289.6,316.3,290.5,317.6,290.3 M320.1,274c1.6-0.4,2.5-2,2.1-3.5
	c-0.4-1.6-2-2.5-3.5-2.1c-1.6,0.4-2.5,2-2.1,3.5C317,273.4,318.6,274.4,320.1,274 M319.4,256.8c1.8-0.7,2.7-2.7,2-4.4
	c-0.7-1.8-2.7-2.7-4.4-2c-1.8,0.7-2.7,2.7-2,4.4C315.7,256.5,317.7,257.5,319.4,256.8 M315.3,239c2-1,2.8-3.4,1.8-5.4
	c-1-2-3.4-2.8-5.4-1.8c-2,1-2.8,3.4-1.8,5.4C310.9,239.2,313.3,240,315.3,239 M307.6,221.5c2.1-1.4,2.7-4.2,1.3-6.4
	c-1.4-2.1-4.2-2.7-6.4-1.3c-2.1,1.4-2.7,4.2-1.3,6.3C302.6,222.3,305.4,222.9,307.6,221.5 M296.3,204.5c2.2-1.8,2.5-5.1,0.7-7.3
	c-1.8-2.2-5.1-2.5-7.3-0.7c-2.2,1.8-2.5,5.1-0.7,7.3C290.9,206,294.1,206.3,296.3,204.5 M281.8,188.9c2.2-2.3,2.1-6-0.2-8.2
	c-2.3-2.2-6-2.1-8.2,0.2c-2.2,2.3-2.1,6,0.2,8.2C275.9,191.3,279.6,191.2,281.8,188.9 M263.7,175c2.1-2.8,1.6-6.8-1.2-8.9
	c-2.8-2.1-6.8-1.6-8.9,1.2c-2.1,2.8-1.6,6.8,1.2,8.9C257.6,178.3,261.6,177.8,263.7,175 M242.6,163.5c2-3.3,0.9-7.5-2.4-9.5
	c-3.3-2-7.5-0.9-9.5,2.4c-2,3.3-0.9,7.5,2.4,9.5C236.4,167.8,240.7,166.8,242.6,163.5 M219,154.9c1.7-3.8,0.1-8.2-3.7-9.9
	c-3.8-1.7-8.2-0.1-9.9,3.7c-1.7,3.8-0.1,8.2,3.7,9.9C212.8,160.3,217.2,158.7,219,154.9 M192.7,149.6c1.4-4.2-0.9-8.8-5.1-10.2
	c-4.2-1.4-8.8,0.9-10.2,5.1c-1.4,4.2,0.9,8.8,5.1,10.2C186.7,156.1,191.3,153.8,192.7,149.6 M284.4,331.5c0.3,0,0.6-0.2,0.6-0.5
	c0-0.3-0.2-0.6-0.5-0.6c-0.3,0-0.6,0.2-0.6,0.5C283.9,331.3,284.1,331.5,284.4,331.5 M293.3,319.5c0.6,0,1.1-0.6,1.1-1.2
	c0-0.6-0.6-1.1-1.2-1.1c-0.6,0-1.1,0.6-1.1,1.2C292.1,319,292.7,319.5,293.3,319.5 M299.4,305.6c0.9-0.2,1.5-1,1.4-2
	c-0.2-0.9-1-1.5-2-1.4c-0.9,0.2-1.5,1-1.4,2C297.6,305.1,298.5,305.8,299.4,305.6 M302.6,290.2c1.2-0.4,1.9-1.7,1.6-2.9
	c-0.4-1.2-1.7-1.9-2.9-1.6c-1.2,0.4-1.9,1.7-1.6,2.9C300.1,289.9,301.4,290.6,302.6,290.2 M302.7,273.7c1.5-0.6,2.2-2.3,1.5-3.8
	c-0.6-1.5-2.3-2.2-3.8-1.5c-1.5,0.6-2.2,2.3-1.5,3.8C299.5,273.6,301.2,274.3,302.7,273.7 M299.3,256.9c1.7-0.9,2.3-3,1.3-4.7
	c-0.9-1.7-3-2.3-4.7-1.3c-1.7,0.9-2.3,3-1.3,4.7C295.6,257.2,297.7,257.8,299.3,256.9 M292.5,240c1.8-1.3,2.2-3.8,0.9-5.6
	c-1.3-1.8-3.8-2.2-5.6-0.9c-1.8,1.3-2.2,3.8-0.9,5.6C288.2,240.9,290.7,241.3,292.5,240 M282.2,223.8c1.9-1.7,2-4.6,0.3-6.5
	c-1.7-1.9-4.6-2-6.5-0.3c-1.9,1.7-2,4.6-0.3,6.5C277.4,225.3,280.3,225.5,282.2,223.8 M268.4,208.9c1.9-2.1,1.7-5.4-0.5-7.3
	c-2.1-1.9-5.4-1.7-7.3,0.5c-1.9,2.1-1.7,5.4,0.5,7.3C263.3,211.2,266.5,211,268.4,208.9 M251.4,195.6c1.8-2.6,1.2-6.2-1.4-8.1
	c-2.6-1.8-6.2-1.2-8.1,1.4c-1.8,2.6-1.2,6.2,1.4,8.1C246,198.9,249.6,198.2,251.4,195.6 M231.6,184.8c1.7-3.1,0.5-6.9-2.6-8.6
	c-3.1-1.7-6.9-0.5-8.6,2.6c-1.7,3.1-0.5,6.9,2.6,8.6C226.1,189,229.9,187.9,231.6,184.8 M209,176.7c1.4-3.5-0.3-7.6-3.8-9
	c-3.5-1.4-7.6,0.3-9,3.8c-1.4,3.5,0.3,7.6,3.8,9C203.5,182,207.6,180.2,209,176.7 M184.1,172c1.1-4-1.2-8.1-5.2-9.2
	c-4-1.1-8.1,1.2-9.2,5.2c-1.1,4,1.2,8.1,5.2,9.2C178.9,178.3,183,176,184.1,172 M157.4,170.9c0.7-4.4-2.3-8.5-6.7-9.2
	c-4.4-0.7-8.5,2.3-9.2,6.7c-0.7,4.4,2.3,8.5,6.7,9.2C152.6,178.3,156.7,175.3,157.4,170.9 M276.4,336.2c0.3,0,0.5-0.3,0.5-0.6
	c0-0.3-0.3-0.5-0.6-0.5c-0.3,0-0.5,0.3-0.5,0.6C275.9,336,276.1,336.2,276.4,336.2 M283.3,323c0.6-0.1,1-0.7,0.9-1.3
	c-0.1-0.6-0.7-1-1.3-0.9c-0.6,0.1-1,0.7-0.9,1.3C282.1,322.7,282.7,323.1,283.3,323 M287.2,308.3c0.9-0.3,1.3-1.3,1-2.1
	c-0.3-0.9-1.3-1.3-2.1-1c-0.9,0.3-1.3,1.3-1,2.2C285.4,308.1,286.4,308.6,287.2,308.3 M288,292.5c1.2-0.6,1.7-1.9,1.1-3.1
	c-0.6-1.2-1.9-1.7-3.1-1.1c-1.2,0.6-1.7,1.9-1.1,3.1C285.5,292.6,286.9,293.1,288,292.5 M285.4,276.2c1.4-0.8,1.8-2.6,0.9-4
	c-0.8-1.4-2.6-1.8-4-0.9c-1.4,0.8-1.8,2.6-0.9,4C282.3,276.6,284,277.1,285.4,276.2 M279.5,260.1c1.5-1.2,1.7-3.4,0.6-4.9
	c-1.2-1.5-3.4-1.8-4.9-0.6c-1.5,1.2-1.8,3.4-0.6,4.9C275.8,261.1,278,261.3,279.5,260.1 M270.1,244.4c1.6-1.6,1.6-4.1,0-5.7
	c-1.6-1.6-4.1-1.6-5.7,0c-1.6,1.6-1.6,4.1,0,5.7C266,246,268.6,246,270.1,244.4 M257.3,230.2c1.6-2,1.3-4.9-0.7-6.5
	c-2-1.6-4.9-1.3-6.4,0.7c-1.6,2-1.3,4.9,0.7,6.5C252.8,232.5,255.7,232.2,257.3,230.2 M241.4,217.4c1.5-2.4,0.8-5.6-1.6-7.1
	c-2.4-1.5-5.6-0.8-7.1,1.6c-1.5,2.4-0.8,5.6,1.6,7.1C236.7,220.5,239.9,219.8,241.4,217.4 M222.8,207.2c1.4-2.9,0.2-6.3-2.7-7.7
	s-6.3-0.2-7.7,2.7c-1.4,2.9-0.2,6.3,2.7,7.7C217.9,211.3,221.4,210.1,222.8,207.2 M201.2,199.5c1.2-3.3-0.6-6.9-3.9-8.1
	c-3.3-1.2-6.9,0.6-8.1,3.9c-1.2,3.3,0.6,6.9,3.9,8.1C196.4,204.5,200.1,202.8,201.2,199.5 M177.8,195.1c0.9-3.7-1.5-7.4-5.2-8.3
	c-3.7-0.9-7.4,1.5-8.3,5.2c-0.9,3.7,1.5,7.4,5.2,8.3C173.2,201.2,176.9,198.9,177.8,195.1 M152.5,194.4c0.5-4.1-2.5-7.8-6.6-8.3
	c-4.1-0.5-7.8,2.5-8.3,6.6c-0.5,4.1,2.5,7.8,6.6,8.3C148.3,201.4,152,198.5,152.5,194.4 M126,197.3c0-4.4-3.6-8.1-8-8.1
	c-4.4,0-8.1,3.6-8.1,8c0,4.4,3.6,8.1,8,8.1C122.3,205.4,125.9,201.8,126,197.3 M269.3,342c0.3-0.1,0.5-0.4,0.4-0.7
	c-0.1-0.3-0.4-0.5-0.7-0.4c-0.3,0.1-0.5,0.4-0.4,0.7C268.7,341.9,269,342,269.3,342 M274,327.9c0.6-0.2,0.9-0.9,0.6-1.5
	c-0.2-0.6-0.9-0.9-1.5-0.6c-0.6,0.2-0.9,0.9-0.6,1.5C272.8,327.9,273.4,328.2,274,327.9 M275.6,312.7c0.8-0.4,1.1-1.5,0.7-2.3
	c-0.4-0.8-1.5-1.1-2.3-0.7c-0.8,0.4-1.1,1.5-0.7,2.3C273.7,312.8,274.8,313.1,275.6,312.7 M273.8,297c1.1-0.7,1.3-2.2,0.6-3.2
	c-0.7-1.1-2.2-1.3-3.2-0.6c-1.1,0.7-1.3,2.2-0.6,3.2C271.3,297.5,272.8,297.7,273.8,297 M268.9,281.4c1.2-1,1.3-2.9,0.3-4.1
	c-1-1.2-2.9-1.3-4.1-0.3c-1.2,1-1.3,2.9-0.3,4.1C265.8,282.3,267.7,282.5,268.9,281.4 M260.4,266.4c1.3-1.4,1.2-3.6-0.2-4.9
	c-1.4-1.3-3.6-1.2-4.9,0.2c-1.3,1.4-1.2,3.6,0.2,4.9C256.9,267.9,259.1,267.8,260.4,266.4 M248.6,252.5c1.3-1.8,0.9-4.3-0.9-5.6
	c-1.8-1.3-4.3-0.9-5.6,0.9c-1.3,1.8-0.9,4.3,0.9,5.6C244.8,254.6,247.3,254.3,248.6,252.5 M233.8,240.2c1.3-2.2,0.5-5-1.7-6.3
	c-2.2-1.3-5-0.5-6.3,1.7c-1.3,2.2-0.5,5,1.7,6.3C229.8,243.2,232.6,242.4,233.8,240.2 M216.2,230.2c1.1-2.6-0.1-5.6-2.7-6.8
	c-2.6-1.1-5.6,0.1-6.8,2.7c-1.1,2.6,0.1,5.6,2.7,6.8C212,234,215,232.8,216.2,230.2 M196,223c0.9-3.1-0.8-6.3-3.9-7.2
	c-3.1-0.9-6.3,0.8-7.2,3.9c-0.9,3.1,0.8,6.3,3.9,7.2C191.9,227.7,195.1,226,196,223 M173.7,218.8c0.6-3.5-1.6-6.8-5.1-7.4
	c-3.5-0.6-6.8,1.6-7.4,5.1c-0.6,3.5,1.6,6.8,5.1,7.4C169.7,224.5,173,222.3,173.7,218.8 M149.8,218.2c0.3-3.8-2.6-7.1-6.4-7.4
	c-3.8-0.3-7.1,2.6-7.4,6.4c-0.3,3.8,2.6,7.1,6.4,7.4C146.2,224.9,149.5,222,149.8,218.2 M124.7,221.4c-0.2-4.1-3.7-7.3-7.8-7.2
	c-4.1,0.2-7.3,3.7-7.2,7.8c0.2,4.1,3.7,7.3,7.8,7.2C121.6,229,124.8,225.5,124.7,221.4 M99,228.4c-0.7-4.4-4.8-7.4-9.2-6.7
	c-4.4,0.7-7.4,4.8-6.7,9.2c0.7,4.4,4.8,7.4,9.2,6.7C96.6,236.9,99.7,232.8,99,228.4 M263.1,348.9c0.3-0.1,0.4-0.4,0.3-0.7
	c-0.1-0.3-0.4-0.4-0.7-0.3c-0.3,0.1-0.4,0.4-0.3,0.7C262.5,348.9,262.8,349,263.1,348.9 M265.6,334.1c0.5-0.3,0.7-1,0.4-1.5
	c-0.3-0.5-1-0.7-1.5-0.4c-0.5,0.3-0.7,1-0.4,1.5C264.4,334.3,265.1,334.4,265.6,334.1 M264.9,319c0.7-0.6,0.9-1.6,0.3-2.4
	c-0.6-0.7-1.6-0.9-2.4-0.3c-0.7,0.6-0.9,1.6-0.3,2.4C263,319.4,264.1,319.5,264.9,319 M260.6,303.9c0.9-0.9,1-2.4,0.1-3.3
	c-0.9-0.9-2.4-1-3.3-0.1c-0.9,0.9-1,2.4-0.1,3.3C258.2,304.7,259.7,304.7,260.6,303.9 M253.3,289.1c1-1.2,0.9-3.1-0.4-4.1
	c-1.2-1-3.1-0.9-4.1,0.4c-1,1.2-0.9,3.1,0.4,4.1C250.4,290.5,252.2,290.4,253.3,289.1 M242.6,275.6c1.1-1.6,0.6-3.7-1-4.8
	c-1.6-1.1-3.7-0.6-4.8,1c-1.1,1.6-0.6,3.7,1,4.8C239.4,277.6,241.5,277.2,242.6,275.6 M228.7,263.7c1-2,0.2-4.4-1.7-5.4
	c-2-1-4.4-0.2-5.4,1.7c-1,2-0.2,4.4,1.7,5.4C225.3,266.4,227.7,265.7,228.7,263.7 M212.3,253.9c0.9-2.4-0.3-5-2.7-5.9
	c-2.4-0.9-5,0.3-5.9,2.7c-0.9,2.4,0.3,5,2.7,5.9C208.7,257.4,211.4,256.3,212.3,253.9 M193.2,246.9c0.7-2.8-1-5.6-3.7-6.3
	c-2.8-0.7-5.6,1-6.3,3.7c-0.7,2.8,1,5.6,3.7,6.3C189.7,251.3,192.5,249.6,193.2,246.9 M172.1,242.8c0.4-3.2-1.8-6.1-4.9-6.5
	c-3.2-0.4-6.1,1.8-6.5,4.9c-0.4,3.2,1.8,6.1,4.9,6.5C168.7,248.2,171.7,246,172.1,242.8 M149.5,242.1c0.1-3.5-2.7-6.4-6.2-6.5
	c-3.5-0.1-6.4,2.7-6.5,6.2c-0.1,3.5,2.7,6.4,6.2,6.5C146.4,248.4,149.4,245.6,149.5,242.1 M125.6,245.3c-0.3-3.8-3.7-6.6-7.5-6.3
	c-3.8,0.3-6.6,3.7-6.3,7.5c0.3,3.8,3.7,6.6,7.5,6.3C123.1,252.5,125.9,249.1,125.6,245.3 M101.3,252.2c-0.8-4.1-4.8-6.7-8.8-5.9
	c-4.1,0.8-6.7,4.8-5.9,8.8c0.8,4.1,4.8,6.7,8.8,5.9C99.5,260.2,102.2,256.3,101.3,252.2 M77.1,263.4c-1.4-4.2-5.9-6.6-10.1-5.2
	c-4.2,1.4-6.6,5.9-5.2,10.1c1.4,4.2,5.9,6.6,10.1,5.2C76.1,272.2,78.5,267.6,77.1,263.4 M258.2,356.5c0.3-0.2,0.3-0.5,0.2-0.8
	c-0.2-0.3-0.5-0.3-0.8-0.2c-0.3,0.2-0.3,0.5-0.2,0.8C257.6,356.6,257.9,356.7,258.2,356.5 M258.2,341.7c0.5-0.4,0.5-1.1,0.1-1.6
	c-0.4-0.5-1.1-0.5-1.6-0.1c-0.5,0.4-0.5,1.1-0.1,1.6C257,342.1,257.7,342.1,258.2,341.7 M255.1,326.8c0.6-0.7,0.6-1.7,0-2.4
	c-0.7-0.6-1.7-0.6-2.4,0c-0.6,0.7-0.6,1.7,0,2.4C253.4,327.5,254.4,327.5,255.1,326.8 M248.6,312.4c0.8-1,0.6-2.5-0.4-3.3
	c-1-0.8-2.5-0.6-3.3,0.4c-0.8,1-0.6,2.5,0.4,3.3C246.4,313.7,247.8,313.5,248.6,312.4 M239,299.2c0.8-1.4,0.4-3.2-1-4
	c-1.4-0.8-3.2-0.4-4,1c-0.8,1.4-0.4,3.2,1,4C236.4,301,238.2,300.6,239,299.2 M226.2,287.5c0.8-1.7,0-3.8-1.7-4.6
	c-1.7-0.8-3.8,0-4.6,1.7c-0.8,1.7,0,3.8,1.7,4.6C223.4,290,225.5,289.2,226.2,287.5 M210.9,277.9c0.7-2.1-0.5-4.4-2.6-5.1
	c-2.1-0.7-4.4,0.5-5.1,2.6c-0.7,2.1,0.5,4.4,2.6,5.1C207.9,281.2,210.2,280,210.9,277.9 M193,270.9c0.5-2.5-1.1-4.9-3.6-5.4
	c-2.5-0.5-4.9,1.1-5.4,3.6c-0.5,2.5,1.1,4.9,3.6,5.4C190,275,192.5,273.4,193,270.9 M173.1,266.8c0.3-2.8-1.8-5.3-4.6-5.6
	c-2.8-0.3-5.3,1.8-5.6,4.6c-0.3,2.8,1.8,5.3,4.7,5.6C170.3,271.7,172.8,269.7,173.1,266.8 M151.7,266.1c-0.1-3.2-2.7-5.7-5.9-5.7
	c-3.2,0.1-5.7,2.7-5.7,5.9c0.1,3.2,2.7,5.7,5.9,5.7C149.2,271.9,151.8,269.3,151.7,266.1 M129.1,269c-0.5-3.5-3.7-5.9-7.1-5.5
	c-3.5,0.5-5.9,3.7-5.5,7.1c0.5,3.5,3.7,5.9,7.1,5.5C127.1,275.7,129.6,272.5,129.1,269 M106.1,275.8c-0.9-3.7-4.7-6-8.4-5
	c-3.7,0.9-6,4.7-5,8.4c0.9,3.7,4.7,6,8.4,5C104.8,283.2,107,279.5,106.1,275.8 M83.1,286.5c-1.4-3.9-5.7-5.8-9.6-4.4
	c-3.9,1.4-5.8,5.7-4.4,9.6c1.4,3.9,5.7,5.8,9.6,4.4C82.6,294.7,84.6,290.4,83.1,286.5 M61,301.3c-2-4-6.8-5.6-10.8-3.6
	c-4,2-5.6,6.8-3.6,10.8c2,4,6.8,5.6,10.8,3.6C61.4,310.2,63,305.3,61,301.3 M254.4,365c0.2-0.2,0.2-0.5,0-0.8
	c-0.2-0.2-0.5-0.2-0.8,0c-0.2,0.2-0.2,0.5,0,0.8C253.8,365.2,254.2,365.2,254.4,365 M252.2,350.3c0.4-0.5,0.4-1.2-0.1-1.6
	c-0.5-0.4-1.2-0.4-1.6,0.1c-0.4,0.5-0.4,1.2,0.1,1.6C251.1,350.8,251.8,350.8,252.2,350.3 M246.7,336.1c0.5-0.8,0.3-1.8-0.4-2.4
	c-0.8-0.5-1.8-0.3-2.4,0.4c-0.5,0.8-0.3,1.8,0.4,2.4C245.1,337.1,246.2,336.9,246.7,336.1 M238.2,322.9c0.6-1.1,0.2-2.5-0.9-3.2
	c-1.1-0.6-2.5-0.2-3.2,0.9c-0.6,1.1-0.2,2.5,0.9,3.2C236.2,324.5,237.6,324,238.2,322.9 M226.5,311.4c0.6-1.5-0.1-3.2-1.6-3.8
	c-1.5-0.6-3.2,0.1-3.8,1.6c-0.6,1.5,0.1,3.2,1.6,3.8C224.2,313.6,225.9,312.9,226.5,311.4 M212.1,301.6c0.5-1.8-0.6-3.8-2.4-4.3
	c-1.8-0.5-3.8,0.6-4.3,2.4c-0.5,1.8,0.6,3.8,2.4,4.3C209.7,304.6,211.6,303.5,212.1,301.6 M195.4,294.7c0.4-2.2-1.1-4.3-3.3-4.6
	c-2.2-0.4-4.3,1.1-4.6,3.3c-0.4,2.2,1.1,4.3,3.3,4.6C193,298.4,195.1,296.9,195.4,294.7 M176.7,290.5c0.1-2.5-1.8-4.7-4.4-4.8
	c-2.5-0.1-4.7,1.8-4.8,4.4c-0.1,2.5,1.8,4.7,4.4,4.8C174.4,295,176.5,293,176.7,290.5 M156.4,289.7c-0.2-2.8-2.6-5-5.5-4.8
	c-2.8,0.2-5,2.6-4.8,5.5c0.2,2.8,2.6,5,5.5,4.8C154.4,295,156.5,292.5,156.4,289.7 M135,292.4c-0.6-3.2-3.6-5.2-6.7-4.7
	c-3.1,0.6-5.2,3.6-4.7,6.7c0.6,3.1,3.6,5.3,6.7,4.7C133.5,298.5,135.6,295.5,135,292.4 M113.3,298.7c-1-3.4-4.5-5.3-7.9-4.3
	c-3.4,1-5.3,4.5-4.3,7.9c1,3.4,4.5,5.3,7.9,4.3C112.4,305.6,114.3,302.1,113.3,298.7 M91.6,309c-1.5-3.5-5.6-5.2-9.1-3.7
	c-3.5,1.5-5.2,5.6-3.7,9.1c1.5,3.5,5.6,5.2,9.1,3.7C91.4,316.6,93.1,312.6,91.6,309 M70.7,323.3c-2-3.6-6.6-4.9-10.2-2.9
	c-3.6,2-4.9,6.6-2.9,10.2c2,3.6,6.6,4.9,10.2,2.8C71.5,331.4,72.8,326.9,70.7,323.3 M51,341.3c-2.6-3.6-7.6-4.4-11.2-1.8
	c-3.6,2.6-4.4,7.6-1.8,11.2c2.6,3.6,7.6,4.4,11.2,1.8C52.8,350,53.6,344.9,51,341.3 M252,374c0.2-0.2,0.2-0.6-0.1-0.8
	c-0.2-0.2-0.6-0.2-0.8,0.1c-0.2,0.2-0.2,0.6,0.1,0.8C251.5,374.3,251.8,374.2,252,374 M247.6,359.8c0.3-0.5,0.2-1.2-0.3-1.6
	c-0.5-0.3-1.2-0.2-1.6,0.3c-0.3,0.5-0.2,1.2,0.4,1.6C246.6,360.5,247.3,360.4,247.6,359.8 M239.9,346.5c0.4-0.8,0.1-1.9-0.8-2.3
	c-0.8-0.4-1.8-0.1-2.3,0.8c-0.4,0.8-0.1,1.9,0.8,2.3C238.5,347.7,239.5,347.4,239.9,346.5 M229.3,335c0.4-1.2-0.2-2.5-1.4-3
	c-1.2-0.4-2.5,0.2-3,1.4c-0.4,1.2,0.2,2.5,1.4,3C227.6,336.8,228.9,336.2,229.3,335 M216,325.3c0.4-1.6-0.6-3.1-2.2-3.5
	c-1.6-0.4-3.1,0.6-3.5,2.2c-0.4,1.6,0.6,3.1,2.2,3.5C214.1,327.8,215.7,326.8,216,325.3 M200.5,318c0.2-1.9-1.1-3.6-3-3.8
	c-1.9-0.2-3.6,1.1-3.8,3c-0.2,1.9,1.1,3.6,3,3.8C198.5,321.3,200.2,319.9,200.5,318 M182.8,313.7c0-2.2-1.8-4-4-4c-2.2,0-4,1.8-4,4
	c0,2.2,1.8,4,4,4C181,317.7,182.8,315.9,182.8,313.7 M163.6,312.6c-0.3-2.5-2.5-4.3-5.1-4.1c-2.5,0.3-4.3,2.5-4.1,5.1
	c0.3,2.5,2.5,4.3,5.1,4.1C162.1,317.4,163.9,315.1,163.6,312.6 M143.4,314.8c-0.6-2.8-3.4-4.5-6.2-3.9c-2.8,0.6-4.5,3.4-3.9,6.2
	c0.6,2.8,3.4,4.5,6.2,3.9C142.3,320.3,144,317.6,143.4,314.8 M122.9,320.8c-1-3-4.3-4.6-7.4-3.6c-3,1-4.6,4.3-3.6,7.4
	c1,3,4.3,4.6,7.4,3.6C122.3,327.1,123.9,323.8,122.9,320.8 M102.3,330.5c-1.5-3.2-5.3-4.5-8.5-3c-3.2,1.5-4.5,5.3-3,8.5
	c1.5,3.2,5.3,4.5,8.5,3C102.5,337.5,103.8,333.7,102.3,330.5 M82.6,344.1c-2-3.2-6.3-4.2-9.5-2.2c-3.2,2-4.2,6.3-2.2,9.5
	c2,3.2,6.3,4.2,9.5,2.2C83.6,351.7,84.6,347.4,82.6,344.1 M64.1,361.4c-2.6-3.2-7.3-3.8-10.5-1.2c-3.2,2.6-3.8,7.3-1.2,10.5
	c2.6,3.2,7.3,3.8,10.5,1.2C66.2,369.4,66.7,364.7,64.1,361.4 M47.5,382.4c-3.1-3.2-8.2-3.2-11.4,0c-3.2,3.1-3.2,8.2,0,11.4
	c3.1,3.2,8.2,3.2,11.4,0C50.6,390.6,50.6,385.5,47.5,382.4 M251.1,383.2c0.1-0.3,0.1-0.6-0.2-0.7c-0.3-0.2-0.6-0.1-0.7,0.2
	c-0.1,0.3-0.1,0.6,0.2,0.7C250.6,383.6,251,383.5,251.1,383.2 M244.5,369.8c0.2-0.6,0-1.2-0.6-1.5c-0.6-0.2-1.2,0-1.5,0.6
	c-0.2,0.6,0,1.2,0.6,1.5C243.6,370.7,244.3,370.4,244.5,369.8 M234.9,358c0.3-0.9-0.2-1.8-1.1-2.1c-0.9-0.3-1.8,0.2-2.1,1.1
	c-0.3,0.9,0.2,1.8,1.1,2.1C233.6,359.4,234.6,358.9,234.9,358 M222.7,348.1c0.2-1.3-0.6-2.5-1.9-2.7c-1.3-0.2-2.5,0.6-2.7,1.9
	c-0.2,1.3,0.6,2.5,1.9,2.7C221.2,350.2,222.4,349.4,222.7,348.1 M208,340.6c0.1-1.6-1.1-3-2.7-3.1c-1.6-0.1-3,1.1-3.1,2.7
	c-0.1,1.6,1.1,3,2.7,3.1C206.5,343.4,207.9,342.2,208,340.6 M191.3,336c-0.1-1.9-1.7-3.4-3.6-3.3c-1.9,0.1-3.4,1.7-3.3,3.6
	c0.1,1.9,1.7,3.4,3.6,3.3C189.9,339.5,191.4,337.9,191.3,336 M173.2,334.5c-0.3-2.2-2.4-3.7-4.6-3.4c-2.2,0.3-3.7,2.4-3.4,4.6
	c0.3,2.2,2.4,3.7,4.6,3.4C172.1,338.7,173.6,336.7,173.2,334.5 M154.1,336.4c-0.7-2.4-3.2-3.9-5.6-3.2c-2.4,0.7-3.9,3.2-3.2,5.6
	c0.7,2.4,3.2,3.9,5.6,3.2C153.3,341.3,154.8,338.8,154.1,336.4 M134.6,341.7c-1-2.6-4-3.9-6.7-2.9c-2.6,1-3.9,4-2.9,6.7
	c1,2.6,4,3.9,6.7,2.9C134.4,347.3,135.7,344.4,134.6,341.7 M115.1,350.9c-1.5-2.8-5-3.9-7.8-2.4c-2.8,1.5-3.9,5-2.4,7.8
	c1.5,2.8,5,3.9,7.8,2.4C115.6,357.2,116.6,353.7,115.1,350.9 M96.5,363.8c-2-2.9-6-3.6-8.8-1.6c-2.9,2-3.6,5.9-1.6,8.8
	c2,2.9,5.9,3.6,8.8,1.6C97.8,370.6,98.5,366.6,96.5,363.8 M79,380.1c-2.5-2.9-6.9-3.2-9.8-0.7c-2.9,2.5-3.2,6.9-0.7,9.8
	c2.5,2.9,6.9,3.2,9.8,0.7C81.2,387.4,81.5,383,79,380.1 M63.5,400.2c-3-2.8-7.8-2.6-10.6,0.4c-2.8,3-2.6,7.8,0.4,10.6
	c3,2.8,7.8,2.6,10.6-0.4C66.7,407.7,66.5,403,63.5,400.2 M50.4,423.4c-3.6-2.6-8.6-1.8-11.2,1.7c-2.6,3.6-1.8,8.6,1.7,11.2
	c3.6,2.6,8.6,1.8,11.2-1.7C54.7,431.1,54,426,50.4,423.4 M251.6,392.5c0.1-0.3,0-0.6-0.3-0.7c-0.3-0.1-0.6,0-0.7,0.3
	c-0.1,0.3,0,0.6,0.3,0.7C251.2,392.9,251.5,392.8,251.6,392.5 M242.9,380.3c0.2-0.6-0.2-1.2-0.8-1.4c-0.6-0.2-1.2,0.2-1.4,0.8
	c-0.2,0.6,0.2,1.2,0.8,1.4C242.2,381.2,242.8,380.9,242.9,380.3 M231.7,370.2c0.1-0.9-0.5-1.8-1.4-1.9c-0.9-0.1-1.8,0.5-1.9,1.4
	c-0.1,0.9,0.5,1.8,1.4,1.9C230.7,371.7,231.6,371.1,231.7,370.2 M218,362.3c0-1.3-1-2.4-2.3-2.4c-1.3,0-2.4,1-2.4,2.3
	c0,1.3,1,2.4,2.3,2.4C216.9,364.6,218,363.6,218,362.3 M202.4,357.2c-0.1-1.6-1.5-2.8-3.1-2.6c-1.6,0.1-2.8,1.5-2.6,3.1
	c0.1,1.6,1.5,2.8,3.1,2.6C201.4,360.2,202.5,358.8,202.4,357.2 M185.3,355.1c-0.4-1.9-2.2-3.1-4.1-2.7c-1.9,0.4-3.1,2.2-2.7,4.1
	c0.4,1.9,2.2,3.1,4.1,2.7C184.4,358.8,185.7,357,185.3,355.1 M167.1,356.4c-0.7-2.1-2.9-3.3-5.1-2.6c-2.1,0.7-3.3,2.9-2.6,5.1
	c0.7,2.1,2.9,3.3,5.1,2.6C166.6,360.8,167.8,358.5,167.1,356.4 M148.6,361.3c-1-2.3-3.8-3.3-6.1-2.3c-2.3,1-3.3,3.8-2.3,6.1
	c1,2.3,3.8,3.3,6.1,2.3C148.6,366.3,149.6,363.6,148.6,361.3 M130.1,369.8c-1.5-2.4-4.6-3.3-7.1-1.8c-2.4,1.5-3.3,4.6-1.8,7.1
	c1.5,2.4,4.6,3.3,7.1,1.8C130.7,375.4,131.5,372.2,130.1,369.8 M112.4,381.8c-1.9-2.6-5.6-3.1-8.1-1.1c-2.6,1.9-3.1,5.6-1.1,8.1
	c1.9,2.6,5.6,3.1,8.1,1.1C113.8,388,114.3,384.4,112.4,381.8 M95.9,397.4c-2.4-2.5-6.4-2.6-9-0.2c-2.5,2.4-2.6,6.4-0.2,9
	c2.4,2.5,6.4,2.7,9,0.2C98.2,404,98.3,400,95.9,397.4 M81.1,416.4c-2.9-2.5-7.3-2.1-9.8,0.8c-2.5,2.9-2.1,7.3,0.8,9.8
	c2.9,2.5,7.3,2.1,9.8-0.8C84.5,423.2,84.1,418.8,81.1,416.4 M69,438.6c-3.4-2.3-8.1-1.4-10.4,2.1c-2.3,3.4-1.4,8.1,2.1,10.4
	c3.4,2.3,8.1,1.4,10.4-2.1C73.4,445.5,72.4,440.8,69,438.6 M59.6,463.5c-4-2-8.8-0.5-10.8,3.5c-2,4-0.5,8.8,3.5,10.8
	c4,2,8.8,0.5,10.8-3.5C65.1,470.3,63.6,465.5,59.6,463.5 M253.6,401.4c0.1-0.3-0.1-0.6-0.4-0.6c-0.3-0.1-0.6,0.1-0.6,0.4
	c-0.1,0.3,0.1,0.6,0.4,0.6C253.2,401.9,253.5,401.7,253.6,401.4 M243.1,390.9c0.1-0.6-0.4-1.2-1-1.2c-0.6-0.1-1.2,0.4-1.2,1
	c-0.1,0.6,0.4,1.2,1,1.2C242.5,392,243.1,391.5,243.1,390.9 M230.4,382.5c0-0.9-0.8-1.7-1.7-1.7c-0.9,0-1.7,0.8-1.7,1.7
	c0,0.9,0.8,1.7,1.7,1.7C229.7,384.2,230.4,383.4,230.4,382.5 M215.8,376.9c-0.2-1.3-1.3-2.2-2.6-2c-1.3,0.2-2.2,1.3-2,2.6
	c0.2,1.3,1.3,2.2,2.6,2C215,379.3,215.9,378.1,215.8,376.9 M199.4,374.3c-0.4-1.6-2-2.5-3.5-2.1c-1.6,0.4-2.5,2-2.1,3.5
	c0.4,1.6,2,2.5,3.5,2.1C198.9,377.4,199.8,375.9,199.4,374.3 M182.2,375c-0.7-1.8-2.7-2.7-4.4-2c-1.8,0.7-2.7,2.7-2,4.4
	c0.7,1.8,2.7,2.7,4.4,2C182,378.8,182.9,376.8,182.2,375 M164.5,379.1c-1-2-3.4-2.8-5.4-1.8c-2,1-2.8,3.4-1.8,5.4
	c1,2,3.4,2.8,5.4,1.8C164.7,383.6,165.5,381.1,164.5,379.1 M146.9,386.9c-1.4-2.1-4.2-2.7-6.4-1.3c-2.1,1.4-2.7,4.2-1.3,6.3
	c1.4,2.1,4.2,2.7,6.4,1.3C147.7,391.9,148.3,389,146.9,386.9 M129.9,398.1c-1.8-2.2-5.1-2.5-7.3-0.7c-2.2,1.8-2.5,5.1-0.7,7.3
	c1.8,2.2,5.1,2.5,7.3,0.7C131.4,403.6,131.7,400.3,129.9,398.1 M114.4,412.7c-2.3-2.2-6-2.1-8.2,0.2c-2.2,2.3-2.1,6,0.2,8.2
	c2.3,2.2,6,2.1,8.2-0.2C116.7,418.6,116.7,414.9,114.4,412.7 M100.4,430.7c-2.8-2.1-6.8-1.6-8.9,1.2c-2.1,2.8-1.6,6.8,1.2,8.9
	c2.8,2.1,6.8,1.6,8.9-1.2C103.8,436.9,103.2,432.9,100.4,430.7 M89,451.8c-3.3-2-7.5-0.9-9.5,2.4c-2,3.3-0.9,7.5,2.4,9.5
	c3.3,2,7.5,0.9,9.5-2.4C93.3,458,92.2,453.8,89,451.8 M80.4,475.5c-3.8-1.7-8.2-0.1-9.9,3.7c-1.7,3.8-0.1,8.2,3.7,9.9
	c3.8,1.7,8.2,0.1,9.9-3.7C85.8,481.7,84.1,477.2,80.4,475.5 M75,501.8c-4.2-1.4-8.8,0.9-10.2,5.1c-1.4,4.2,0.9,8.8,5.1,10.2
	c4.2,1.4,8.8-0.9,10.2-5.1C81.5,507.7,79.2,503.2,75,501.8 M257,410c0-0.3-0.2-0.6-0.5-0.6c-0.3,0-0.6,0.2-0.6,0.5
	c0,0.3,0.2,0.6,0.5,0.6C256.7,410.6,257,410.3,257,410 M244.9,401.2c0-0.6-0.6-1.1-1.2-1.1c-0.6,0-1.1,0.6-1.1,1.2
	c0,0.6,0.6,1.1,1.2,1.1C244.5,402.3,245,401.8,244.9,401.2 M231,395.1c-0.2-0.9-1-1.5-2-1.4c-0.9,0.2-1.5,1-1.4,2
	c0.2,0.9,1,1.5,2,1.4S231.2,396,231,395.1 M215.7,391.8c-0.4-1.2-1.7-1.9-2.9-1.6c-1.2,0.4-1.9,1.7-1.6,2.9c0.4,1.2,1.7,1.9,2.9,1.6
	C215.3,394.3,216,393,215.7,391.8 M199.1,391.7c-0.6-1.5-2.3-2.2-3.8-1.5c-1.5,0.6-2.2,2.3-1.5,3.8c0.6,1.5,2.3,2.2,3.8,1.5
	C199.1,394.9,199.8,393.2,199.1,391.7 M182.3,395.1c-0.9-1.7-3-2.3-4.7-1.3c-1.7,0.9-2.3,3-1.3,4.7c0.9,1.7,3,2.3,4.7,1.3
	C182.7,398.9,183.3,396.8,182.3,395.1 M165.4,401.9c-1.3-1.8-3.8-2.2-5.6-0.9c-1.8,1.3-2.2,3.8-0.9,5.6c1.3,1.8,3.8,2.2,5.6,0.9
	C166.3,406.3,166.7,403.8,165.4,401.9 M149.2,412.2c-1.7-1.9-4.6-2-6.5-0.3c-1.9,1.7-2,4.6-0.3,6.5c1.7,1.9,4.6,2,6.5,0.3
	C150.8,417,150.9,414.1,149.2,412.2 M134.3,426c-2.1-1.9-5.4-1.7-7.3,0.5c-1.9,2.1-1.7,5.4,0.5,7.3c2.1,1.9,5.4,1.7,7.3-0.5
	C136.7,431.2,136.5,427.9,134.3,426 M121.1,443c-2.6-1.8-6.2-1.2-8.1,1.4c-1.8,2.6-1.2,6.2,1.4,8.1c2.6,1.8,6.2,1.2,8.1-1.4
	C124.3,448.5,123.7,444.8,121.1,443 M110.2,462.9c-3.1-1.7-6.9-0.5-8.6,2.6c-1.7,3.1-0.5,6.9,2.6,8.6c3.1,1.7,6.9,0.5,8.6-2.6
	C114.5,468.4,113.3,464.5,110.2,462.9 M102.2,485.5c-3.5-1.4-7.6,0.3-9,3.8c-1.4,3.5,0.3,7.6,3.8,9c3.5,1.4,7.6-0.3,9-3.8
	C107.4,490.9,105.7,486.9,102.2,485.5 M97.5,510.3c-4-1.1-8.1,1.2-9.2,5.2c-1.1,4,1.2,8.1,5.2,9.2c4,1.1,8.1-1.2,9.2-5.2
	C103.8,515.6,101.4,511.5,97.5,510.3 M96.3,537.1c-4.4-0.7-8.5,2.3-9.2,6.7c-0.7,4.4,2.3,8.5,6.7,9.2c4.4,0.7,8.5-2.3,9.2-6.7
	C103.7,541.9,100.7,537.8,96.3,537.1 M261.6,418c0-0.3-0.3-0.5-0.6-0.5c-0.3,0-0.5,0.3-0.5,0.6c0,0.3,0.3,0.5,0.6,0.5
	C261.5,418.6,261.7,418.3,261.6,418 M248.4,411.1c-0.1-0.6-0.7-1-1.3-0.9c-0.6,0.1-1,0.7-0.9,1.3c0.1,0.6,0.7,1,1.3,0.9
	C248.2,412.3,248.6,411.7,248.4,411.1 M233.7,407.2c-0.3-0.9-1.3-1.3-2.2-1c-0.9,0.3-1.3,1.3-1,2.1c0.3,0.9,1.3,1.3,2.1,1
	C233.6,409.1,234,408.1,233.7,407.2 M218,406.4c-0.6-1.2-1.9-1.7-3.1-1.1c-1.2,0.6-1.7,1.9-1.1,3.1c0.6,1.2,1.9,1.7,3.1,1.1
	C218,409,218.5,407.6,218,406.4 M201.7,409c-0.8-1.4-2.6-1.8-4-0.9c-1.4,0.8-1.8,2.6-0.9,4c0.8,1.4,2.6,1.8,4,0.9
	C202.1,412.2,202.5,410.4,201.7,409 M185.6,415c-1.2-1.5-3.4-1.8-4.9-0.6c-1.5,1.2-1.8,3.4-0.6,4.9c1.2,1.5,3.4,1.8,4.9,0.6
	C186.5,418.6,186.8,416.5,185.6,415 M169.9,424.3c-1.6-1.6-4.1-1.6-5.7,0c-1.6,1.6-1.6,4.1,0,5.7c1.6,1.6,4.1,1.6,5.7,0
	C171.4,428.4,171.4,425.9,169.9,424.3 M155.6,437.2c-2-1.6-4.9-1.3-6.4,0.7c-1.6,2-1.3,4.9,0.7,6.4c2,1.6,4.9,1.3,6.5-0.7
	C157.9,441.7,157.6,438.8,155.6,437.2 M142.9,453.1c-2.4-1.5-5.6-0.8-7.1,1.6c-1.5,2.4-0.8,5.6,1.6,7.1c2.4,1.5,5.6,0.8,7.1-1.6
	C146,457.8,145.3,454.6,142.9,453.1 M132.7,471.7c-2.9-1.4-6.3-0.2-7.7,2.7c-1.4,2.9-0.2,6.3,2.7,7.7c2.9,1.4,6.3,0.2,7.7-2.7
	C136.7,476.6,135.5,473.1,132.7,471.7 M124.9,493.2c-3.3-1.2-6.9,0.6-8.1,3.9c-1.2,3.3,0.6,6.9,3.9,8.1c3.3,1.2,6.9-0.6,8.1-3.9
	C130,498,128.2,494.4,124.9,493.2 M120.6,516.7c-3.7-0.9-7.4,1.5-8.3,5.2c-0.9,3.7,1.5,7.4,5.2,8.3c3.7,0.9,7.4-1.5,8.3-5.2
	C126.6,521.3,124.3,517.5,120.6,516.7 M119.8,542c-4.1-0.5-7.8,2.5-8.3,6.6c-0.5,4.1,2.5,7.8,6.6,8.3c4.1,0.5,7.8-2.5,8.3-6.6
	C126.9,546.2,123.9,542.5,119.8,542 M122.8,568.5c-4.4,0-8.1,3.6-8.1,8c0,4.4,3.6,8.1,8,8.1c4.4,0,8.1-3.6,8.1-8
	C130.8,572.1,127.2,568.5,122.8,568.5 M267.4,425.2c-0.1-0.3-0.4-0.5-0.7-0.4c-0.3,0.1-0.5,0.4-0.4,0.7c0.1,0.3,0.4,0.5,0.7,0.4
	C267.3,425.8,267.5,425.5,267.4,425.2 M253.4,420.5c-0.2-0.6-0.9-0.9-1.5-0.6c-0.6,0.2-0.9,0.9-0.6,1.5c0.2,0.6,0.9,0.9,1.5,0.6
	C253.3,421.7,253.6,421,253.4,420.5 M238.1,418.9c-0.4-0.8-1.5-1.1-2.3-0.7c-0.8,0.4-1.1,1.5-0.7,2.3c0.4,0.8,1.5,1.1,2.3,0.7
	C238.2,420.7,238.6,419.7,238.1,418.9 M222.5,420.6c-0.7-1.1-2.2-1.3-3.2-0.6c-1.1,0.7-1.3,2.2-0.6,3.2c0.7,1.1,2.2,1.3,3.2,0.6
	C222.9,423.1,223.2,421.7,222.5,420.6 M206.9,425.6c-1-1.2-2.9-1.3-4.1-0.3c-1.2,1-1.3,2.9-0.3,4.1c1,1.2,2.9,1.3,4.1,0.3
	C207.8,428.6,207.9,426.8,206.9,425.6 M191.8,434c-1.4-1.3-3.6-1.2-4.9,0.2c-1.3,1.4-1.2,3.6,0.2,4.9c1.4,1.3,3.6,1.2,4.9-0.2
	C193.3,437.5,193.2,435.3,191.8,434 M177.9,445.8c-1.8-1.3-4.3-0.9-5.6,0.9c-1.3,1.8-0.9,4.3,0.9,5.6c1.8,1.3,4.3,0.9,5.6-0.9
	C180.1,449.6,179.7,447.1,177.9,445.8 M165.7,460.6c-2.2-1.3-5-0.5-6.3,1.7c-1.3,2.2-0.5,5,1.7,6.3c2.2,1.3,5,0.5,6.3-1.7
	C168.6,464.7,167.9,461.9,165.7,460.6 M155.7,478.3c-2.6-1.1-5.6,0.1-6.8,2.7c-1.1,2.6,0.1,5.6,2.7,6.8c2.6,1.1,5.6-0.1,6.8-2.7
	C159.5,482.4,158.3,479.4,155.7,478.3 M148.4,498.4c-3.1-0.9-6.3,0.8-7.2,3.9c-0.9,3.1,0.8,6.3,3.9,7.2c3.1,0.9,6.3-0.8,7.2-3.9
	C153.2,502.6,151.5,499.3,148.4,498.4 M144.3,520.8c-3.5-0.6-6.8,1.6-7.4,5.1c-0.6,3.5,1.6,6.8,5.1,7.4c3.5,0.6,6.8-1.6,7.4-5.1
	C150,524.8,147.7,521.4,144.3,520.8 M143.7,544.7c-3.8-0.3-7.1,2.6-7.4,6.4c-0.3,3.8,2.6,7.1,6.4,7.4c3.8,0.3,7.1-2.6,7.4-6.4
	C150.4,548.3,147.5,545,143.7,544.7 M146.8,569.8c-4.1,0.2-7.3,3.7-7.2,7.8c0.2,4.1,3.7,7.3,7.8,7.2c4.1-0.2,7.3-3.7,7.2-7.8
	C154.4,572.8,150.9,569.6,146.8,569.8 M153.9,595.5c-4.4,0.7-7.4,4.8-6.7,9.2c0.7,4.4,4.8,7.4,9.2,6.7c4.4-0.7,7.4-4.8,6.7-9.2
	C162.4,597.8,158.3,594.8,153.9,595.5 M274.3,431.4c-0.1-0.3-0.4-0.4-0.7-0.3c-0.3,0.1-0.4,0.4-0.3,0.7c0.1,0.3,0.4,0.4,0.7,0.3
	C274.3,432,274.4,431.6,274.3,431.4 M259.6,428.8c-0.3-0.5-1-0.7-1.5-0.4c-0.5,0.3-0.7,1-0.4,1.5c0.3,0.5,1,0.7,1.5,0.4
	C259.7,430.1,259.9,429.4,259.6,428.8 M244.4,429.6c-0.6-0.7-1.6-0.9-2.4-0.3c-0.7,0.6-0.9,1.6-0.3,2.4c0.6,0.7,1.6,0.9,2.4,0.3
	C244.8,431.4,245,430.3,244.4,429.6 M229.3,433.8c-0.9-0.9-2.4-1-3.3-0.1c-0.9,0.9-1,2.4-0.1,3.3c0.9,0.9,2.4,1,3.3,0.1
	C230.2,436.3,230.2,434.8,229.3,433.8 M214.6,441.2c-1.2-1-3.1-0.9-4.1,0.4c-1,1.2-0.9,3.1,0.4,4.1c1.2,1,3.1,0.9,4.1-0.4
	C216,444.1,215.8,442.2,214.6,441.2 M201,451.9c-1.6-1.1-3.7-0.6-4.8,1c-1.1,1.6-0.6,3.7,1,4.8c1.6,1.1,3.7,0.6,4.8-1
	C203.1,455.1,202.6,452.9,201,451.9 M189.1,465.8c-2-1-4.4-0.2-5.4,1.7c-1,2-0.2,4.4,1.7,5.4c2,1,4.4,0.2,5.4-1.7
	C191.9,469.2,191.1,466.8,189.1,465.8 M179.3,482.2c-2.4-0.9-5,0.3-5.9,2.7c-0.9,2.4,0.3,5,2.7,5.9c2.4,0.9,5-0.3,5.9-2.7
	C182.9,485.7,181.7,483.1,179.3,482.2 M172.3,501.2c-2.8-0.7-5.6,1-6.3,3.7c-0.7,2.8,1,5.6,3.7,6.3c2.8,0.7,5.6-1,6.3-3.7
	C176.7,504.7,175.1,501.9,172.3,501.2 M168.3,522.4c-3.2-0.4-6.1,1.8-6.5,4.9c-0.4,3.2,1.8,6.1,4.9,6.5c3.2,0.4,6.1-1.8,6.5-4.9
	C173.7,525.7,171.5,522.8,168.3,522.4 M167.6,545c-3.5-0.1-6.4,2.7-6.5,6.2c-0.1,3.5,2.7,6.4,6.2,6.5c3.5,0.1,6.4-2.7,6.5-6.2
	C173.9,548,171.1,545.1,167.6,545 M170.8,568.8c-3.8,0.3-6.6,3.7-6.3,7.5c0.3,3.8,3.7,6.6,7.5,6.3c3.8-0.3,6.6-3.7,6.3-7.5
	C177.9,571.3,174.6,568.5,170.8,568.8 M177.7,593.1c-4.1,0.8-6.7,4.8-5.9,8.8c0.8,4.1,4.8,6.7,8.8,5.9c4.1-0.8,6.7-4.8,5.9-8.8
	C185.7,594.9,181.7,592.3,177.7,593.1 M188.8,617.3c-4.2,1.4-6.6,5.9-5.2,10.1c1.4,4.2,5.9,6.6,10.1,5.2c4.2-1.4,6.6-5.9,5.2-10.1
	C197.6,618.3,193.1,616,188.8,617.3 M282,436.3c-0.2-0.3-0.5-0.3-0.8-0.2c-0.3,0.2-0.3,0.5-0.2,0.8c0.2,0.3,0.5,0.3,0.8,0.2
	C282.1,436.9,282.2,436.5,282,436.3 M267.2,436.3c-0.4-0.5-1.1-0.5-1.6-0.1c-0.5,0.4-0.5,1.1-0.1,1.6c0.4,0.5,1.1,0.5,1.6,0.1
	C267.5,437.5,267.6,436.7,267.2,436.3 M252.3,439.4c-0.7-0.6-1.7-0.6-2.4,0c-0.6,0.7-0.6,1.7,0,2.4c0.7,0.6,1.7,0.6,2.4,0
	C253,441.1,253,440,252.3,439.4 M237.9,445.8c-1-0.8-2.5-0.6-3.3,0.4c-0.8,1-0.6,2.5,0.4,3.3c1,0.8,2.5,0.6,3.3-0.4
	C239.1,448.1,238.9,446.6,237.9,445.8 M224.7,455.4c-1.4-0.8-3.2-0.4-4,1c-0.8,1.4-0.4,3.2,1,4c1.4,0.8,3.2,0.4,4-1
	C226.5,458,226,456.3,224.7,455.4 M213,468.2c-1.7-0.8-3.8,0-4.6,1.7c-0.8,1.7,0,3.8,1.7,4.6c1.7,0.8,3.8,0,4.6-1.7
	C215.5,471.1,214.7,469,213,468.2 M203.4,483.5c-2.1-0.7-4.4,0.5-5.1,2.6c-0.7,2.1,0.5,4.4,2.6,5.1c2.1,0.7,4.4-0.5,5.1-2.6
	C206.6,486.5,205.5,484.2,203.4,483.5 M196.3,501.5c-2.5-0.5-4.9,1.1-5.4,3.6c-0.5,2.5,1.1,4.9,3.6,5.4c2.5,0.5,4.9-1.1,5.4-3.6
	C200.4,504.4,198.8,502,196.3,501.5 M192.3,521.4c-2.8-0.3-5.3,1.8-5.6,4.6c-0.3,2.8,1.8,5.3,4.6,5.6c2.8,0.3,5.3-1.8,5.6-4.6
	C197.2,524.1,195.1,521.6,192.3,521.4 M191.5,542.7c-3.2,0.1-5.7,2.7-5.7,5.9c0.1,3.2,2.7,5.7,5.9,5.7c3.2-0.1,5.7-2.7,5.7-5.9
	C197.4,545.2,194.7,542.7,191.5,542.7 M194.4,565.3c-3.5,0.5-5.9,3.7-5.5,7.1c0.5,3.5,3.7,5.9,7.1,5.5c3.5-0.5,5.9-3.7,5.5-7.1
	C201.1,567.3,197.9,564.9,194.4,565.3 M201.2,588.3c-3.7,0.9-6,4.7-5,8.4c0.9,3.7,4.7,6,8.4,5c3.7-0.9,6-4.7,5-8.4
	C208.7,589.7,204.9,587.4,201.2,588.3 M212,611.3c-3.9,1.4-5.8,5.7-4.4,9.6c1.4,3.9,5.7,5.8,9.6,4.4c3.9-1.4,5.8-5.7,4.4-9.6
	C220.1,611.8,215.8,609.9,212,611.3 M226.8,633.4c-4,2-5.6,6.8-3.6,10.8c2,4,6.8,5.6,10.8,3.6c4-2,5.6-6.8,3.6-10.8
	C235.6,633,230.8,631.4,226.8,633.4 M290.5,440.1c-0.2-0.2-0.5-0.2-0.8,0c-0.2,0.2-0.2,0.5,0,0.8c0.2,0.2,0.5,0.2,0.8,0
	C290.7,440.6,290.7,440.3,290.5,440.1 M275.8,442.3c-0.5-0.4-1.2-0.4-1.6,0.1c-0.4,0.5-0.4,1.2,0.1,1.6c0.5,0.4,1.2,0.4,1.6-0.1
	C276.3,443.4,276.2,442.7,275.8,442.3 M261.6,447.7c-0.8-0.5-1.8-0.3-2.4,0.4c-0.5,0.8-0.3,1.8,0.4,2.4c0.8,0.5,1.8,0.3,2.4-0.4
	C262.5,449.3,262.3,448.3,261.6,447.7 M248.4,456.3c-1.1-0.6-2.5-0.2-3.2,0.9c-0.6,1.1-0.2,2.5,0.9,3.2c1.1,0.6,2.6,0.2,3.2-0.9
	C249.9,458.3,249.5,456.9,248.4,456.3 M236.8,467.9c-1.5-0.6-3.2,0.1-3.8,1.6c-0.6,1.5,0.1,3.2,1.6,3.8c1.5,0.6,3.2-0.1,3.8-1.6
	C239,470.2,238.3,468.5,236.8,467.9 M227.1,482.3c-1.8-0.5-3.7,0.6-4.3,2.4c-0.5,1.8,0.6,3.7,2.4,4.3c1.8,0.5,3.7-0.6,4.3-2.4
	C230,484.8,228.9,482.9,227.1,482.3 M220.1,499c-2.2-0.4-4.3,1.1-4.6,3.3c-0.4,2.2,1.1,4.3,3.3,4.6c2.2,0.4,4.3-1.1,4.6-3.3
	C223.8,501.4,222.3,499.4,220.1,499 M215.9,517.8c-2.5-0.1-4.7,1.8-4.8,4.4c-0.1,2.5,1.8,4.7,4.4,4.8c2.5,0.1,4.7-1.8,4.8-4.4
	C220.4,520.1,218.4,517.9,215.9,517.8 M215.1,538.1c-2.8,0.2-5,2.6-4.8,5.5c0.2,2.8,2.6,5,5.5,4.8c2.8-0.2,5-2.6,4.8-5.5
	C220.4,540.1,218,537.9,215.1,538.1 M217.8,559.4c-3.2,0.6-5.3,3.6-4.7,6.7c0.6,3.1,3.6,5.2,6.7,4.7c3.1-0.6,5.3-3.6,4.7-6.7
	C224,561,221,558.9,217.8,559.4 M224.2,581.2c-3.4,1-5.3,4.5-4.3,7.9c1,3.4,4.5,5.3,7.9,4.3c3.4-1,5.3-4.5,4.3-7.9
	C231.1,582.1,227.6,580.2,224.2,581.2 M234.5,602.9c-3.5,1.5-5.2,5.6-3.7,9.1c1.5,3.5,5.6,5.2,9.1,3.7c3.5-1.5,5.2-5.6,3.7-9.1
	C242.1,603,238,601.4,234.5,602.9 M248.7,623.7c-3.6,2-4.9,6.6-2.8,10.2c2,3.6,6.6,4.9,10.2,2.9c3.6-2,4.9-6.6,2.8-10.2
	C256.9,623,252.3,621.7,248.7,623.7 M266.8,643.4c-3.6,2.6-4.4,7.6-1.8,11.2c2.6,3.6,7.6,4.4,11.2,1.8c3.6-2.6,4.4-7.6,1.8-11.2
	C275.4,641.6,270.4,640.8,266.8,643.4 M299.4,442.4c-0.2-0.2-0.6-0.2-0.8,0.1c-0.2,0.2-0.2,0.6,0.1,0.8c0.2,0.2,0.6,0.2,0.8-0.1
	C299.7,443,299.7,442.6,299.4,442.4 M285.3,446.8c-0.5-0.3-1.2-0.2-1.6,0.3c-0.3,0.5-0.2,1.2,0.3,1.6c0.5,0.3,1.2,0.2,1.6-0.3
	C286,447.8,285.8,447.1,285.3,446.8 M272,454.5c-0.8-0.4-1.9-0.1-2.3,0.8c-0.4,0.8-0.1,1.8,0.8,2.3c0.8,0.4,1.8,0.1,2.3-0.8
	C273.2,456,272.8,454.9,272,454.5 M260.4,465.1c-1.2-0.4-2.5,0.2-3,1.4c-0.4,1.2,0.2,2.5,1.4,3c1.2,0.4,2.5-0.2,3-1.4
	C262.3,466.9,261.6,465.6,260.4,465.1 M250.7,478.4c-1.6-0.4-3.1,0.6-3.5,2.2c-0.4,1.6,0.6,3.1,2.2,3.5c1.6,0.4,3.1-0.6,3.5-2.2
	C253.3,480.3,252.3,478.8,250.7,478.4 M243.5,494c-1.9-0.2-3.6,1.1-3.8,3c-0.2,1.9,1.1,3.6,3,3.8c1.9,0.2,3.6-1.1,3.8-3
	C246.7,495.9,245.4,494.2,243.5,494 M239.1,511.7c-2.2,0-4,1.8-4,4c0,2.2,1.8,4,4,4c2.2,0,4-1.8,4-4
	C243.2,513.5,241.4,511.7,239.1,511.7 M238.1,530.9c-2.5,0.3-4.3,2.5-4.1,5.1c0.3,2.5,2.5,4.3,5.1,4.1c2.5-0.3,4.3-2.5,4.1-5.1
	C242.8,532.4,240.6,530.6,238.1,530.9 M240.2,551.1c-2.8,0.6-4.5,3.4-3.9,6.2c0.6,2.8,3.4,4.5,6.2,3.9c2.8-0.6,4.5-3.4,3.9-6.2
	C245.8,552.2,243,550.5,240.2,551.1 M246.2,571.6c-3,1-4.6,4.3-3.6,7.4c1,3,4.3,4.6,7.4,3.6c3-1,4.6-4.3,3.6-7.4
	C252.6,572.1,249.3,570.5,246.2,571.6 M255.9,592.1c-3.2,1.5-4.5,5.3-3,8.5c1.5,3.2,5.3,4.5,8.5,3c3.2-1.5,4.5-5.3,3-8.5
	C262.9,592,259.1,590.6,255.9,592.1 M269.6,611.9c-3.2,2-4.2,6.3-2.2,9.5c2,3.2,6.3,4.2,9.5,2.2c3.2-2,4.2-6.3,2.2-9.5
	C277.1,610.9,272.8,609.9,269.6,611.9 M286.9,630.3c-3.2,2.6-3.8,7.3-1.2,10.5c2.6,3.2,7.3,3.8,10.5,1.2c3.2-2.6,3.8-7.3,1.2-10.5
	C294.8,628.3,290.1,627.8,286.9,630.3 M307.8,647c-3.2,3.1-3.2,8.2,0,11.4c3.1,3.2,8.2,3.2,11.4,0c3.2-3.1,3.2-8.2,0-11.4
	C316.1,643.9,311,643.8,307.8,647 M308.7,443.4c-0.3-0.1-0.6-0.1-0.7,0.2c-0.1,0.3-0.1,0.6,0.2,0.7c0.3,0.1,0.6,0.1,0.7-0.2
	C309,443.8,309,443.5,308.7,443.4 M295.3,450c-0.6-0.2-1.2,0-1.5,0.6c-0.2,0.6,0,1.2,0.6,1.5c0.6,0.2,1.2,0,1.5-0.6
	C296.1,450.9,295.8,450.2,295.3,450 M283.5,459.6c-0.9-0.3-1.8,0.2-2.1,1.1c-0.3,0.9,0.2,1.8,1.1,2.1c0.9,0.3,1.8-0.2,2.1-1.1
	C284.9,460.8,284.4,459.9,283.5,459.6 M273.6,471.8c-1.3-0.2-2.5,0.6-2.7,1.9c-0.2,1.3,0.6,2.5,1.9,2.7c1.3,0.2,2.5-0.6,2.7-1.9
	C275.7,473.2,274.9,472,273.6,471.8 M266,486.4c-1.6-0.1-3,1.1-3.1,2.7c-0.1,1.6,1.1,3,2.7,3.1c1.6,0.1,3-1.1,3.1-2.7
	C268.8,487.9,267.6,486.5,266,486.4 M261.4,503.1c-1.9,0.1-3.4,1.7-3.3,3.6c0.1,1.9,1.7,3.4,3.6,3.3c1.9-0.1,3.4-1.7,3.3-3.6
	C265,504.6,263.3,503.1,261.4,503.1 M259.9,521.2c-2.2,0.3-3.7,2.4-3.4,4.6c0.3,2.2,2.4,3.7,4.6,3.4c2.2-0.3,3.7-2.4,3.4-4.6
	C264.2,522.4,262.1,520.9,259.9,521.2 M261.8,540.3c-2.4,0.7-3.9,3.2-3.2,5.6c0.7,2.4,3.2,3.9,5.6,3.2c2.4-0.7,3.9-3.2,3.2-5.6
	C266.8,541.1,264.3,539.7,261.8,540.3 M267.2,559.9c-2.6,1.1-3.9,4-2.9,6.7c1,2.6,4,3.9,6.7,2.9c2.6-1.1,3.9-4,2.9-6.7
	C272.8,560.1,269.8,558.8,267.2,559.9 M276.3,579.3c-2.8,1.5-3.9,5-2.4,7.8c1.5,2.8,5,3.9,7.8,2.4c2.8-1.5,3.9-5,2.4-7.8
	C282.6,578.9,279.1,577.8,276.3,579.3 M289.2,598c-2.9,2-3.6,6-1.6,8.8c2,2.9,5.9,3.6,8.8,1.6c2.9-2,3.6-5.9,1.6-8.8
	C296.1,596.7,292.1,596,289.2,598 M305.6,615.4c-2.9,2.5-3.2,6.9-0.7,9.8c2.5,2.9,6.9,3.2,9.8,0.7c2.9-2.5,3.2-6.9,0.7-9.8
	C312.8,613.2,308.5,612.9,305.6,615.4 M325.6,631c-2.8,3-2.6,7.8,0.4,10.6c3,2.8,7.8,2.6,10.6-0.4c2.8-3,2.6-7.8-0.4-10.6
	C333.1,627.7,328.4,627.9,325.6,631 M348.9,644.1c-2.6,3.6-1.8,8.6,1.7,11.2c3.6,2.6,8.6,1.8,11.2-1.7c2.6-3.6,1.8-8.6-1.7-11.2
	C356.5,639.7,351.5,640.5,348.9,644.1 M318,442.8c-0.3-0.1-0.6,0-0.7,0.3c-0.1,0.3,0,0.6,0.3,0.7c0.3,0.1,0.6,0,0.7-0.3
	C318.4,443.3,318.2,442.9,318,442.8 M305.7,451.5c-0.6-0.2-1.2,0.2-1.4,0.8c-0.2,0.6,0.2,1.2,0.8,1.4c0.6,0.2,1.2-0.2,1.4-0.8
	C306.7,452.3,306.3,451.7,305.7,451.5 M295.6,462.8c-0.9-0.1-1.8,0.5-1.9,1.4c-0.1,0.9,0.5,1.8,1.4,1.9c0.9,0.1,1.8-0.5,1.9-1.4
	C297.2,463.7,296.5,462.9,295.6,462.8 M287.7,476.4c-1.3,0-2.4,1-2.4,2.3c0,1.3,1,2.4,2.3,2.4c1.3,0,2.4-1,2.4-2.3
	C290,477.5,289,476.5,287.7,476.4 M282.7,492c-1.6,0.1-2.8,1.5-2.6,3.1c0.1,1.6,1.5,2.8,3.1,2.6c1.6-0.1,2.8-1.5,2.6-3.1
	C285.7,493.1,284.3,491.9,282.7,492 M280.5,509.2c-1.9,0.4-3.1,2.2-2.7,4.1c0.4,1.9,2.2,3.1,4.1,2.7c1.9-0.4,3.1-2.2,2.7-4.1
	C284.2,510,282.4,508.8,280.5,509.2 M281.8,527.3c-2.1,0.7-3.3,2.9-2.6,5.1c0.7,2.1,2.9,3.3,5.1,2.6c2.1-0.7,3.3-2.9,2.6-5.1
	C286.2,527.8,284,526.6,281.8,527.3 M286.7,545.9c-2.3,1-3.3,3.8-2.3,6.1c1,2.3,3.8,3.3,6.1,2.3c2.3-1,3.3-3.8,2.3-6.1
	C291.8,545.9,289,544.8,286.7,545.9 M295.2,564.4c-2.4,1.4-3.3,4.6-1.8,7.1c1.5,2.4,4.6,3.3,7.1,1.8c2.4-1.5,3.3-4.6,1.8-7.1
	C300.9,563.7,297.7,562.9,295.2,564.4 M307.3,582.1c-2.6,1.9-3.1,5.6-1.1,8.1c1.9,2.6,5.6,3.1,8.1,1.1c2.6-1.9,3.1-5.6,1.1-8.1
	C313.4,580.6,309.8,580.1,307.3,582.1 M322.9,598.6c-2.5,2.4-2.6,6.4-0.2,9c2.4,2.5,6.4,2.6,9,0.2c2.5-2.4,2.6-6.4,0.2-9
	C329.4,596.3,325.4,596.2,322.9,598.6 M341.8,613.3c-2.5,2.9-2.1,7.3,0.8,9.8c2.9,2.5,7.3,2.1,9.8-0.8c2.5-2.9,2.1-7.3-0.8-9.8
	C348.7,610,344.3,610.4,341.8,613.3 M364,625.4c-2.3,3.4-1.4,8.1,2.1,10.4c3.4,2.3,8.1,1.4,10.4-2.1c2.3-3.4,1.4-8.1-2.1-10.4
	C370.9,621.1,366.3,622,364,625.4 M388.9,634.8c-2,4-0.5,8.8,3.5,10.8c4,2,8.8,0.5,10.8-3.5c2-4,0.5-8.8-3.5-10.8
	C395.8,629.3,390.9,630.9,388.9,634.8 M326.9,440.9c-0.3-0.1-0.6,0.1-0.6,0.4c-0.1,0.3,0.1,0.6,0.4,0.6c0.3,0.1,0.6-0.1,0.6-0.4
	C327.4,441.2,327.2,440.9,326.9,440.9 M316.3,451.3c-0.6-0.1-1.2,0.4-1.2,1c-0.1,0.6,0.4,1.2,1,1.2c0.6,0.1,1.2-0.4,1.2-1
	C317.4,451.9,317,451.4,316.3,451.3 M307.9,464c-0.9,0-1.7,0.8-1.7,1.7c0,0.9,0.8,1.7,1.7,1.7c0.9,0,1.7-0.8,1.7-1.7
	C309.6,464.8,308.8,464,307.9,464 M302.3,478.7c-1.3,0.2-2.2,1.3-2,2.6c0.2,1.3,1.3,2.2,2.6,2c1.3-0.2,2.2-1.3,2-2.6
	C304.8,479.4,303.6,478.5,302.3,478.7 M299.8,495c-1.6,0.4-2.5,2-2.1,3.5c0.4,1.6,2,2.5,3.5,2.1c1.6-0.4,2.5-2,2.1-3.5
	C302.9,495.6,301.3,494.6,299.8,495 M300.5,512.2c-1.8,0.7-2.7,2.7-2,4.4c0.7,1.8,2.7,2.7,4.4,2c1.8-0.7,2.7-2.7,2-4.4
	C304.2,512.5,302.2,511.5,300.5,512.2 M304.6,530c-2,1-2.8,3.4-1.8,5.4c1,2,3.4,2.8,5.4,1.8c2-1,2.8-3.4,1.8-5.4
	C309,529.8,306.6,529,304.6,530 M312.3,547.5c-2.1,1.4-2.7,4.2-1.3,6.4c1.4,2.1,4.2,2.7,6.4,1.3c2.1-1.4,2.7-4.2,1.3-6.4
	C317.3,546.7,314.5,546.1,312.3,547.5 M323.6,564.5c-2.2,1.8-2.5,5.1-0.7,7.3c1.8,2.2,5.1,2.5,7.3,0.7c2.2-1.8,2.5-5.1,0.7-7.3
	C329,563,325.8,562.7,323.6,564.5 M338.1,580.1c-2.2,2.3-2.1,6,0.2,8.2c2.3,2.2,6,2.1,8.2-0.2c2.2-2.3,2.1-6-0.2-8.2
	C344,577.7,340.4,577.8,338.1,580.1 M356.2,594c-2.1,2.8-1.6,6.8,1.2,8.9c2.8,2.1,6.8,1.6,8.9-1.2c2.1-2.8,1.6-6.8-1.2-8.9
	C362.3,590.7,358.3,591.2,356.2,594 M377.3,605.5c-2,3.3-0.9,7.5,2.4,9.5c3.3,2,7.5,0.9,9.5-2.4c2-3.3,0.9-7.5-2.4-9.5
	C383.5,601.2,379.2,602.2,377.3,605.5 M400.9,614.1c-1.7,3.8-0.1,8.2,3.7,9.9c3.8,1.7,8.2,0.1,9.9-3.7c1.7-3.8,0.1-8.2-3.7-9.9
	C407.1,608.7,402.7,610.3,400.9,614.1 M427.2,619.4c-1.4,4.2,0.9,8.8,5.1,10.2c4.2,1.4,8.8-0.9,10.2-5.1c1.4-4.2-0.9-8.8-5.1-10.2
	C433.2,612.9,428.6,615.2,427.2,619.4 M335.5,437.5c-0.3,0-0.6,0.2-0.6,0.5c0,0.3,0.2,0.6,0.5,0.6c0.3,0,0.6-0.2,0.6-0.5
	C336,437.8,335.8,437.5,335.5,437.5 M326.6,449.5c-0.6,0-1.1,0.6-1.1,1.2c0,0.6,0.6,1.1,1.2,1.1c0.6,0,1.1-0.6,1.1-1.2
	C327.8,450,327.2,449.5,326.6,449.5 M320.5,463.4c-0.9,0.2-1.5,1-1.4,2c0.2,0.9,1,1.5,2,1.4c0.9-0.2,1.5-1,1.4-2
	C322.3,463.9,321.4,463.2,320.5,463.4 M317.3,478.8c-1.2,0.4-1.9,1.7-1.6,2.9c0.4,1.2,1.7,1.9,2.9,1.6c1.2-0.4,1.9-1.7,1.6-2.9
	C319.8,479.1,318.5,478.4,317.3,478.8 M317.2,495.3c-1.5,0.6-2.2,2.3-1.5,3.8c0.6,1.5,2.3,2.2,3.8,1.5c1.5-0.6,2.2-2.3,1.5-3.8
	C320.4,495.4,318.7,494.7,317.2,495.3 M320.6,512.1c-1.7,0.9-2.3,3-1.3,4.7c0.9,1.7,3,2.3,4.7,1.3c1.7-0.9,2.3-3,1.3-4.7
	C324.3,511.8,322.2,511.2,320.6,512.1 M327.4,529c-1.8,1.3-2.2,3.8-0.9,5.6c1.3,1.8,3.8,2.2,5.6,0.9c1.8-1.3,2.2-3.8,0.9-5.6
	C331.7,528.1,329.2,527.7,327.4,529 M337.7,545.2c-1.9,1.7-2,4.6-0.3,6.5c1.7,1.9,4.6,2,6.5,0.3c1.9-1.7,2-4.6,0.3-6.5
	C342.5,543.7,339.6,543.5,337.7,545.2 M351.5,560.1c-1.9,2.1-1.7,5.4,0.5,7.3c2.1,1.9,5.4,1.7,7.3-0.5c1.9-2.1,1.7-5.4-0.5-7.3
	C356.6,557.8,353.4,558,351.5,560.1 M368.5,573.4c-1.8,2.6-1.2,6.2,1.4,8.1c2.6,1.8,6.2,1.2,8.1-1.4c1.8-2.6,1.2-6.2-1.4-8.1
	C373.9,570.1,370.3,570.8,368.5,573.4 M388.3,584.2c-1.7,3.1-0.5,6.9,2.6,8.6c3.1,1.7,6.9,0.5,8.6-2.6c1.7-3.1,0.5-6.9-2.6-8.6
	C393.8,580,390,581.1,388.3,584.2 M410.9,592.3c-1.4,3.5,0.3,7.6,3.8,9c3.5,1.4,7.6-0.3,9-3.8c1.4-3.5-0.3-7.6-3.8-9
	C416.4,587.1,412.3,588.8,410.9,592.3 M435.8,597c-1.1,4,1.2,8.1,5.2,9.2c4,1.1,8.1-1.2,9.2-5.2c1.1-4-1.2-8.1-5.2-9.2
	C441,590.7,436.9,593,435.8,597 M462.5,598.1c-0.7,4.4,2.3,8.5,6.7,9.2c4.4,0.7,8.5-2.3,9.2-6.7c0.7-4.4-2.3-8.5-6.7-9.2
	C467.3,590.8,463.2,593.7,462.5,598.1 M343.5,432.8c-0.3,0-0.5,0.3-0.5,0.6c0,0.3,0.3,0.5,0.6,0.5c0.3,0,0.5-0.3,0.5-0.6
	C344,433,343.8,432.8,343.5,432.8 M336.6,446c-0.6,0.1-1,0.7-0.9,1.3c0.1,0.6,0.7,1,1.3,0.9c0.6-0.1,1-0.7,0.9-1.3
	C337.8,446.3,337.2,445.9,336.6,446 M332.7,460.7c-0.9,0.3-1.3,1.3-1,2.1c0.3,0.9,1.3,1.3,2.1,1c0.9-0.3,1.3-1.3,1-2.2
	C334.5,460.9,333.5,460.4,332.7,460.7 M331.9,476.5c-1.2,0.6-1.7,1.9-1.1,3.1c0.6,1.2,1.9,1.7,3.1,1.1c1.2-0.6,1.7-1.9,1.1-3.1
	C334.4,476.4,333,475.9,331.9,476.5 M334.5,492.8c-1.4,0.8-1.8,2.6-0.9,4c0.8,1.4,2.6,1.8,4,0.9c1.4-0.8,1.8-2.6,0.9-4
	C337.6,492.4,335.9,492,334.5,492.8 M340.4,508.9c-1.5,1.2-1.8,3.4-0.6,4.9c1.2,1.5,3.4,1.8,4.9,0.6c1.5-1.2,1.8-3.4,0.6-4.9
	C344.1,507.9,341.9,507.7,340.4,508.9 M349.8,524.6c-1.6,1.6-1.6,4.1,0,5.7c1.6,1.6,4.1,1.6,5.7,0c1.6-1.6,1.6-4.1,0-5.7
	C353.9,523,351.4,523,349.8,524.6 M362.6,538.8c-1.6,2-1.3,4.9,0.7,6.4c2,1.6,4.9,1.3,6.4-0.7c1.6-2,1.3-4.9-0.7-6.4
	C367.1,536.5,364.2,536.9,362.6,538.8 M378.5,551.6c-1.5,2.4-0.8,5.6,1.6,7.1c2.4,1.5,5.6,0.8,7.1-1.6c1.5-2.4,0.8-5.6-1.6-7.1
	C383.2,548.5,380,549.2,378.5,551.6 M397.1,561.8c-1.4,2.9-0.2,6.3,2.7,7.7c2.9,1.4,6.3,0.2,7.7-2.7c1.4-2.9,0.2-6.3-2.7-7.7
	C402,557.7,398.5,558.9,397.1,561.8 M418.7,569.5c-1.2,3.3,0.6,6.9,3.9,8.1c3.3,1.2,6.9-0.6,8.1-3.9c1.2-3.3-0.6-6.9-3.9-8.1
	C423.5,564.5,419.8,566.2,418.7,569.5 M442.1,573.9c-0.9,3.7,1.5,7.4,5.2,8.3c3.7,0.9,7.4-1.5,8.3-5.2c0.9-3.7-1.5-7.4-5.2-8.3
	C446.7,567.8,443,570.1,442.1,573.9 M467.4,574.6c-0.5,4.1,2.5,7.8,6.6,8.3c4.1,0.5,7.8-2.5,8.3-6.6c0.5-4.1-2.5-7.8-6.6-8.3
	C471.6,567.6,467.9,570.5,467.4,574.6 M493.9,571.7c0,4.4,3.6,8.1,8,8.1c4.4,0,8.1-3.6,8.1-8c0-4.4-3.6-8.1-8-8.1
	C497.6,563.7,494,567.2,493.9,571.7 M350.6,427c-0.3,0.1-0.5,0.4-0.4,0.7c0.1,0.3,0.4,0.5,0.7,0.4c0.3-0.1,0.5-0.4,0.4-0.7
	C351.2,427.1,350.9,427,350.6,427 M345.9,441.1c-0.6,0.2-0.9,0.9-0.6,1.5c0.2,0.6,0.9,0.9,1.5,0.6c0.6-0.2,0.9-0.9,0.6-1.5
	C347.1,441.1,346.5,440.9,345.9,441.1 M344.3,456.3c-0.8,0.4-1.1,1.5-0.7,2.3c0.4,0.8,1.5,1.1,2.3,0.7c0.8-0.4,1.1-1.5,0.7-2.3
	C346.2,456.2,345.2,455.9,344.3,456.3 M346.1,472c-1.1,0.7-1.3,2.2-0.6,3.2c0.7,1.1,2.2,1.3,3.2,0.6c1.1-0.7,1.3-2.2,0.6-3.2
	C348.6,471.5,347.1,471.3,346.1,472 M351,487.6c-1.2,1-1.3,2.9-0.3,4.1c1,1.2,2.9,1.3,4.1,0.3c1.2-1,1.3-2.9,0.3-4.1
	C354.1,486.7,352.2,486.5,351,487.6 M359.5,502.7c-1.3,1.4-1.2,3.6,0.2,4.9c1.4,1.3,3.6,1.2,4.9-0.2c1.3-1.4,1.2-3.6-0.2-4.9
	C363,501.2,360.8,501.2,359.5,502.7 M371.3,516.5c-1.3,1.8-0.9,4.3,0.9,5.6c1.8,1.3,4.3,0.9,5.6-0.9c1.3-1.8,0.9-4.3-0.9-5.6
	C375.1,514.4,372.6,514.7,371.3,516.5 M386.1,528.8c-1.3,2.2-0.5,5,1.7,6.3c2.2,1.3,5,0.5,6.3-1.7c1.3-2.2,0.5-5-1.7-6.3
	C390.1,525.8,387.3,526.6,386.1,528.8 M403.7,538.8c-1.1,2.6,0.1,5.6,2.7,6.8c2.6,1.1,5.6-0.1,6.8-2.7c1.1-2.6-0.1-5.6-2.7-6.8
	C407.9,535,404.9,536.2,403.7,538.8 M423.9,546c-0.9,3.1,0.8,6.3,3.9,7.2c3.1,0.9,6.3-0.8,7.2-3.9c0.9-3.1-0.8-6.3-3.9-7.2
	C428,541.3,424.8,543,423.9,546 M446.2,550.2c-0.6,3.5,1.6,6.8,5.1,7.4c3.5,0.6,6.8-1.6,7.4-5.1c0.6-3.5-1.6-6.8-5.1-7.4
	C450.2,544.5,446.9,546.7,446.2,550.2 M470.1,550.8c-0.3,3.8,2.6,7.1,6.4,7.4c3.8,0.3,7.1-2.6,7.4-6.4c0.3-3.8-2.6-7.1-6.4-7.4
	C473.7,544.1,470.4,547,470.1,550.8 M495.2,547.6c0.2,4.1,3.7,7.3,7.8,7.2c4.1-0.2,7.3-3.7,7.2-7.8c-0.2-4.1-3.7-7.3-7.8-7.2
	C498.3,540,495.1,543.5,495.2,547.6 M520.9,540.6c0.7,4.4,4.8,7.4,9.2,6.7c4.4-0.7,7.4-4.8,6.7-9.2c-0.7-4.4-4.8-7.4-9.2-6.7
	C523.3,532.1,520.2,536.2,520.9,540.6 M356.8,420.1c-0.3,0.1-0.4,0.4-0.3,0.7c0.1,0.3,0.4,0.4,0.7,0.3c0.3-0.1,0.4-0.4,0.3-0.7
	C357.4,420.1,357.1,420,356.8,420.1 M354.3,434.9c-0.5,0.3-0.7,1-0.4,1.5c0.3,0.5,1,0.7,1.5,0.4c0.5-0.3,0.7-1,0.4-1.5
	C355.5,434.7,354.8,434.6,354.3,434.9 M355.1,450c-0.7,0.6-0.9,1.6-0.3,2.4c0.6,0.7,1.6,0.9,2.4,0.3c0.7-0.6,0.9-1.6,0.3-2.4
	C356.9,449.6,355.8,449.5,355.1,450 M359.3,465.2c-0.9,0.9-1,2.4-0.1,3.3c0.9,0.9,2.4,1,3.3,0.1c0.9-0.9,1-2.4,0.1-3.3
	C361.7,464.3,360.2,464.3,359.3,465.2 M366.6,479.9c-1,1.2-0.9,3.1,0.4,4.1c1.2,1,3.1,0.9,4.1-0.4c1-1.2,0.9-3.1-0.4-4.1
	C369.5,478.5,367.7,478.6,366.6,479.9 M377.3,493.4c-1.1,1.6-0.6,3.7,1,4.8c1.6,1.1,3.7,0.6,4.8-1c1.1-1.6,0.6-3.7-1-4.8
	C380.5,491.4,378.4,491.8,377.3,493.4 M391.2,505.3c-1,2-0.2,4.4,1.7,5.4c2,1,4.4,0.2,5.4-1.7c1-2,0.2-4.4-1.7-5.4
	C394.6,502.6,392.2,503.4,391.2,505.3 M407.6,515.1c-0.9,2.4,0.3,5,2.7,5.9c2.4,0.9,5-0.3,5.9-2.7c0.9-2.4-0.3-5-2.7-5.9
	C411.2,511.6,408.5,512.8,407.6,515.1 M426.7,522.2c-0.7,2.8,1,5.6,3.7,6.3c2.8,0.7,5.6-1,6.3-3.7c0.7-2.8-1-5.6-3.7-6.3
	C430.2,517.7,427.4,519.4,426.7,522.2 M447.8,526.2c-0.4,3.2,1.8,6.1,4.9,6.5c3.2,0.4,6.1-1.8,6.5-4.9c0.4-3.2-1.8-6.1-4.9-6.5
	C451.2,520.8,448.2,523,447.8,526.2 M470.4,526.9c-0.1,3.5,2.7,6.4,6.2,6.5c3.5,0.1,6.4-2.7,6.5-6.2c0.1-3.5-2.7-6.4-6.2-6.5
	C473.5,520.6,470.5,523.4,470.4,526.9 M494.3,523.7c0.3,3.8,3.7,6.6,7.5,6.3c3.8-0.3,6.6-3.7,6.3-7.5c-0.3-3.8-3.7-6.6-7.5-6.3
	C496.8,516.5,494,519.9,494.3,523.7 M518.6,516.8c0.8,4.1,4.8,6.7,8.8,5.9c4.1-0.8,6.7-4.8,5.9-8.8c-0.8-4.1-4.8-6.7-8.8-5.9
	C520.4,508.8,517.7,512.7,518.6,516.8 M542.8,505.6c1.4,4.2,5.9,6.6,10.1,5.2c4.2-1.4,6.6-5.9,5.2-10.1c-1.4-4.2-5.9-6.6-10.1-5.2
	C543.8,496.8,541.4,501.4,542.8,505.6 M361.7,412.5c-0.3,0.2-0.3,0.5-0.2,0.8c0.2,0.3,0.5,0.3,0.8,0.2c0.3-0.2,0.3-0.5,0.2-0.8
	C362.3,412.4,362,412.3,361.7,412.5 M361.7,427.3c-0.5,0.4-0.5,1.1-0.1,1.6c0.4,0.5,1.1,0.5,1.6,0.1c0.5-0.4,0.5-1.1,0.1-1.6
	C362.9,426.9,362.2,426.9,361.7,427.3 M364.8,442.2c-0.6,0.7-0.6,1.7,0,2.4c0.7,0.6,1.7,0.6,2.4,0c0.6-0.7,0.6-1.7,0-2.4
	C366.5,441.5,365.5,441.5,364.8,442.2 M371.3,456.6c-0.8,1-0.6,2.5,0.4,3.3c1,0.8,2.5,0.6,3.3-0.4c0.8-1,0.6-2.5-0.4-3.3
	C373.5,455.4,372.1,455.5,371.3,456.6 M380.9,469.8c-0.8,1.4-0.4,3.2,1,4c1.4,0.8,3.1,0.4,4-1c0.8-1.4,0.4-3.2-1-4
	C383.5,468,381.7,468.4,380.9,469.8 M393.7,481.5c-0.8,1.7,0,3.8,1.7,4.6c1.7,0.8,3.8,0,4.6-1.7c0.8-1.7,0-3.8-1.7-4.6
	C396.5,479,394.4,479.8,393.7,481.5 M409,491.1c-0.7,2.1,0.5,4.4,2.6,5.1c2.1,0.7,4.4-0.5,5.1-2.6c0.7-2.1-0.5-4.4-2.6-5.1
	C412,487.8,409.7,489,409,491.1 M426.9,498.1c-0.5,2.5,1.1,4.9,3.6,5.4c2.5,0.5,4.9-1.1,5.4-3.6c0.5-2.5-1.1-4.9-3.6-5.4
	C429.9,494,427.4,495.6,426.9,498.1 M446.8,502.2c-0.3,2.8,1.8,5.3,4.7,5.6c2.8,0.3,5.3-1.8,5.6-4.7c0.3-2.8-1.8-5.3-4.7-5.6
	C449.6,497.3,447.1,499.3,446.8,502.2 M468.2,502.9c0.1,3.2,2.7,5.7,5.9,5.7c3.2-0.1,5.7-2.7,5.7-5.9c-0.1-3.2-2.7-5.7-5.9-5.7
	C470.7,497.1,468.1,499.7,468.2,502.9 M490.8,500c0.5,3.5,3.7,5.9,7.1,5.5c3.5-0.5,5.9-3.7,5.5-7.1c-0.5-3.5-3.7-5.9-7.1-5.5
	C492.8,493.4,490.3,496.6,490.8,500 M513.8,493.2c0.9,3.7,4.7,6,8.4,5c3.7-0.9,6-4.7,5-8.4c-0.9-3.7-4.7-6-8.4-5
	C515.1,485.8,512.9,489.5,513.8,493.2 M536.8,482.5c1.4,3.9,5.7,5.8,9.6,4.4c3.9-1.4,5.8-5.7,4.4-9.6c-1.4-3.9-5.7-5.8-9.6-4.4
	C537.3,474.3,535.3,478.6,536.8,482.5 M558.9,467.7c2,4,6.8,5.6,10.8,3.6c4-2,5.6-6.8,3.5-10.8c-2-4-6.8-5.6-10.8-3.6
	C558.5,458.8,556.9,463.7,558.9,467.7 M365.5,404c-0.2,0.2-0.2,0.5,0,0.8c0.2,0.2,0.5,0.2,0.8,0c0.2-0.2,0.2-0.5,0-0.8
	C366.1,403.8,365.7,403.8,365.5,404 M367.7,418.7c-0.4,0.5-0.4,1.2,0.1,1.6c0.5,0.4,1.2,0.4,1.6-0.1c0.4-0.5,0.4-1.2-0.1-1.6
	C368.8,418.2,368.1,418.2,367.7,418.7 M373.2,432.9c-0.5,0.8-0.3,1.8,0.4,2.4c0.8,0.5,1.8,0.3,2.4-0.4c0.5-0.8,0.3-1.8-0.4-2.4
	C374.8,431.9,373.7,432.1,373.2,432.9 M381.7,446.1c-0.6,1.1-0.2,2.5,0.9,3.2c1.1,0.6,2.5,0.2,3.2-0.9c0.6-1.1,0.2-2.6-0.9-3.2
	C383.7,444.5,382.3,445,381.7,446.1 M393.4,457.6c-0.6,1.5,0.1,3.2,1.6,3.8s3.2-0.1,3.8-1.6c0.6-1.5-0.1-3.2-1.6-3.8
	C395.7,455.4,394,456.1,393.4,457.6 M407.8,467.4c-0.5,1.8,0.6,3.8,2.4,4.3c1.8,0.5,3.8-0.6,4.3-2.4c0.5-1.8-0.6-3.7-2.4-4.3
	C410.2,464.4,408.3,465.5,407.8,467.4 M424.5,474.3c-0.4,2.2,1.1,4.3,3.3,4.6c2.2,0.4,4.3-1.1,4.6-3.3c0.4-2.2-1.1-4.3-3.3-4.6
	C426.9,470.6,424.8,472.1,424.5,474.3 M443.2,478.5c-0.1,2.5,1.8,4.7,4.4,4.8c2.5,0.1,4.7-1.8,4.8-4.4c0.1-2.5-1.8-4.7-4.4-4.8
	C445.5,474,443.4,476,443.2,478.5 M463.5,479.3c0.2,2.8,2.6,5,5.5,4.8c2.8-0.2,5-2.6,4.8-5.5c-0.2-2.8-2.6-5-5.5-4.8
	C465.5,474,463.4,476.5,463.5,479.3 M484.9,476.6c0.6,3.2,3.6,5.2,6.7,4.7c3.2-0.6,5.3-3.6,4.7-6.7c-0.6-3.2-3.6-5.3-6.7-4.7
	C486.4,470.5,484.3,473.5,484.9,476.6 M506.6,470.3c1,3.4,4.5,5.3,7.9,4.3c3.4-1,5.3-4.5,4.3-7.9c-1-3.4-4.5-5.3-7.9-4.3
	C507.5,463.4,505.6,466.9,506.6,470.3 M528.3,460c1.5,3.5,5.6,5.2,9.1,3.7c3.5-1.5,5.2-5.6,3.7-9.1c-1.5-3.5-5.6-5.2-9.1-3.7
	C528.5,452.4,526.8,456.4,528.3,460 M549.2,445.7c2,3.6,6.6,4.9,10.2,2.8c3.6-2,4.9-6.6,2.9-10.2c-2-3.6-6.6-4.9-10.2-2.9
	C548.4,437.6,547.1,442.1,549.2,445.7 M568.9,427.7c2.6,3.6,7.6,4.4,11.2,1.8c3.6-2.6,4.4-7.6,1.8-11.2c-2.6-3.6-7.6-4.4-11.2-1.8
	C567.1,419.1,566.3,424.1,568.9,427.7 M367.9,395c-0.2,0.2-0.2,0.6,0.1,0.8c0.2,0.2,0.6,0.2,0.8-0.1c0.2-0.2,0.1-0.6-0.1-0.8
	C368.4,394.8,368.1,394.8,367.9,395 M372.3,409.2c-0.3,0.5-0.2,1.2,0.4,1.6c0.5,0.3,1.2,0.2,1.6-0.3c0.3-0.5,0.2-1.2-0.4-1.6
	C373.3,408.5,372.6,408.6,372.3,409.2 M380,422.5c-0.4,0.8-0.1,1.8,0.8,2.3c0.8,0.4,1.9,0.1,2.3-0.8c0.4-0.8,0.1-1.9-0.8-2.3
	C381.4,421.3,380.4,421.6,380,422.5 M390.6,434c-0.4,1.2,0.2,2.5,1.4,3c1.2,0.4,2.5-0.2,3-1.4c0.4-1.2-0.2-2.5-1.4-3
	C392.3,432.2,391,432.8,390.6,434 M403.9,443.7c-0.4,1.6,0.6,3.1,2.2,3.5c1.6,0.4,3.1-0.6,3.5-2.2c0.4-1.6-0.6-3.1-2.2-3.5
	C405.8,441.2,404.2,442.2,403.9,443.7 M419.4,451c-0.2,1.9,1.1,3.6,3,3.8c1.9,0.2,3.6-1.1,3.8-3c0.2-1.9-1.1-3.6-3-3.8
	C421.4,447.7,419.7,449.1,419.4,451 M437.1,455.3c0,2.2,1.8,4,4,4c2.2,0,4-1.8,4-4c0-2.2-1.8-4-4-4
	C438.9,451.3,437.1,453.1,437.1,455.3 M456.3,456.4c0.3,2.5,2.5,4.3,5.1,4.1c2.5-0.3,4.3-2.5,4.1-5.1c-0.3-2.5-2.5-4.3-5.1-4.1
	C457.9,451.6,456,453.9,456.3,456.4 M476.5,454.2c0.6,2.8,3.4,4.5,6.2,3.9c2.8-0.6,4.5-3.4,3.9-6.2c-0.6-2.8-3.4-4.5-6.2-3.9
	C477.6,448.7,475.9,451.4,476.5,454.2 M497,448.2c1,3,4.3,4.6,7.4,3.6c3-1,4.6-4.3,3.6-7.4c-1-3-4.3-4.6-7.4-3.6
	C497.6,441.9,496,445.2,497,448.2 M517.6,438.5c1.5,3.2,5.3,4.5,8.5,3c3.2-1.5,4.5-5.3,3-8.5c-1.5-3.2-5.3-4.5-8.5-3
	C517.4,431.6,516.1,435.3,517.6,438.5 M537.3,424.9c2,3.2,6.3,4.2,9.5,2.2c3.2-2,4.2-6.3,2.2-9.5c-2-3.2-6.3-4.2-9.5-2.2
	C536.3,417.4,535.3,421.6,537.3,424.9 M555.8,407.6c2.6,3.2,7.3,3.8,10.5,1.2c3.2-2.6,3.8-7.3,1.2-10.5c-2.6-3.2-7.3-3.8-10.5-1.2
	C553.7,399.6,553.2,404.3,555.8,407.6 M572.4,386.6c3.1,3.2,8.2,3.2,11.4,0c3.2-3.1,3.2-8.2,0-11.4c-3.1-3.2-8.2-3.2-11.4,0
	C569.3,378.4,569.3,383.5,572.4,386.6 M368.8,385.8c-0.1,0.3-0.1,0.6,0.2,0.7c0.3,0.1,0.6,0.1,0.7-0.2c0.1-0.3,0.1-0.6-0.2-0.7
	C369.3,385.4,368.9,385.5,368.8,385.8 M375.4,399.2c-0.2,0.6,0,1.2,0.6,1.5c0.6,0.2,1.2,0,1.5-0.6c0.2-0.6,0-1.2-0.6-1.5
	C376.3,398.4,375.6,398.6,375.4,399.2 M385,411c-0.3,0.9,0.2,1.8,1.1,2.1c0.9,0.3,1.8-0.2,2.1-1.1c0.3-0.9-0.2-1.8-1.1-2.1
	C386.3,409.6,385.3,410.1,385,411 M397.2,420.9c-0.2,1.3,0.6,2.5,1.9,2.7c1.3,0.2,2.5-0.6,2.7-1.9c0.2-1.3-0.6-2.5-1.9-2.7
	C398.7,418.8,397.5,419.6,397.2,420.9 M411.9,428.4c-0.1,1.6,1.1,3,2.7,3.1c1.6,0.1,3-1.1,3.1-2.7c0.1-1.6-1.1-3-2.7-3.1
	C413.4,425.6,412,426.8,411.9,428.4 M428.6,433c0.1,1.9,1.7,3.4,3.6,3.3c1.9-0.1,3.4-1.7,3.3-3.6c-0.1-1.9-1.7-3.4-3.6-3.3
	C430,429.5,428.5,431.1,428.6,433 M446.7,434.5c0.3,2.2,2.4,3.7,4.6,3.4c2.2-0.3,3.7-2.4,3.4-4.6c-0.3-2.2-2.4-3.7-4.6-3.4
	C447.8,430.3,446.3,432.3,446.7,434.5 M465.8,432.6c0.7,2.4,3.2,3.9,5.6,3.2c2.4-0.7,3.9-3.2,3.2-5.6c-0.7-2.4-3.2-3.9-5.6-3.2
	C466.6,427.7,465.1,430.2,465.8,432.6 M485.3,427.3c1.1,2.6,4,3.9,6.7,2.9c2.6-1.1,3.9-4,2.9-6.7c-1.1-2.6-4-3.9-6.7-2.9
	C485.5,421.7,484.2,424.7,485.3,427.3 M504.8,418.1c1.5,2.8,5,3.9,7.8,2.4c2.8-1.5,3.9-5,2.4-7.8c-1.5-2.8-5-3.9-7.8-2.4
	C504.3,411.8,503.3,415.3,504.8,418.1 M523.4,405.3c2,2.9,5.9,3.6,8.8,1.6c2.9-2,3.6-5.9,1.6-8.8c-2-2.9-5.9-3.6-8.8-1.6
	C522.1,398.4,521.4,402.4,523.4,405.3 M540.9,388.9c2.5,2.9,6.9,3.2,9.8,0.7c2.9-2.5,3.2-6.9,0.7-9.8c-2.5-2.9-6.9-3.2-9.8-0.7
	C538.7,381.6,538.4,386,540.9,388.9 M556.4,368.8c3,2.8,7.8,2.6,10.6-0.4c2.8-3,2.6-7.8-0.4-10.6c-3-2.8-7.8-2.6-10.6,0.4
	C553.2,361.3,553.4,366,556.4,368.8 M569.5,345.6c3.6,2.6,8.6,1.8,11.2-1.7c2.6-3.6,1.8-8.6-1.7-11.2c-3.6-2.6-8.6-1.8-11.2,1.7
	C565.2,337.9,565.9,343,569.5,345.6"/>
</svg>
